<?xml version="1.0" standalone="no"?>
<!DOCTYPE svg PUBLIC "-//W3C//DTD SVG 20010904//EN"
 "http://www.w3.org/TR/2001/REC-SVG-20010904/DTD/svg10.dtd">
<svg version="1.0" xmlns="http://www.w3.org/2000/svg"
 width="1350.000000pt" height="1341.000000pt" viewBox="0 0 1350.000000 1341.000000"
 preserveAspectRatio="xMidYMid meet">
<metadata>
Created by potrace 1.10, written by Peter Selinger 2001-2011
</metadata>
<g transform="translate(0.000000,1341.000000) scale(0.100000,-0.100000)"
fill="#e60000" stroke="none">
<path d="M56 13379 c-3 -17 -6 -3035 -6 -6705 0 -6667 0 -6674 20 -6674 20 0
20 8 22 6653 l3 6652 6703 3 6702 2 0 50 0 50 -6719 0 -6718 0 -7 -31z"/>
<path d="M4265 12572 c-17 -11 -48 -44 -69 -74 -34 -50 -38 -63 -39 -122 -2
-61 0 -69 23 -86 14 -11 34 -20 45 -20 32 0 82 36 108 77 38 60 53 69 77 48
19 -17 20 -31 19 -204 0 -102 -6 -211 -12 -241 -11 -50 -16 -57 -55 -79 -48
-26 -57 -40 -48 -75 7 -30 58 -49 171 -66 104 -14 263 1 310 30 55 34 53 85
-5 115 -58 30 -60 39 -60 282 0 188 2 224 16 237 8 9 19 16 23 16 11 0 45 -40
66 -77 26 -45 82 -69 128 -54 83 28 77 165 -12 263 l-45 50 -50 -8 c-67 -10
-492 -11 -531 -1 -22 5 -38 2 -60 -11z"/>
<path d="M5353 12575 c-48 -20 -67 -58 -74 -145 -7 -77 -33 -150 -121 -338
-16 -35 -33 -73 -38 -85 -23 -52 -81 -137 -94 -137 -17 0 -76 -57 -76 -73 0
-7 11 -24 24 -36 51 -48 310 -36 330 15 13 34 5 55 -29 75 -40 24 -43 38 -16
63 15 14 40 17 134 17 66 0 124 -4 136 -11 29 -15 26 -42 -8 -61 -39 -22 -45
-53 -17 -86 26 -30 82 -41 226 -42 115 -1 198 13 226 39 19 19 25 20 43 8 12
-7 21 -16 21 -20 0 -10 95 -28 147 -28 58 0 118 18 139 41 21 24 12 62 -19 76
-34 16 -46 72 -38 175 3 47 9 90 13 93 16 16 36 -6 58 -62 37 -92 99 -224 122
-255 24 -35 57 -34 75 2 7 14 34 70 59 125 67 148 77 167 97 179 28 17 37 -8
37 -104 0 -87 -17 -136 -57 -165 -26 -19 -11 -58 30 -78 49 -25 210 -34 289
-18 85 18 112 64 64 112 -49 50 -51 61 -53 294 -1 231 4 263 46 310 67 73 5
135 -136 135 -135 0 -146 -9 -250 -206 -78 -149 -87 -162 -108 -149 -16 10
-55 75 -140 237 -55 102 -78 118 -179 118 -177 0 -275 -71 -181 -132 59 -39
65 -63 61 -249 -2 -90 -7 -201 -11 -247 -8 -79 -10 -84 -44 -112 -42 -36 -41
-35 -69 -10 -12 11 -33 25 -46 30 -19 7 -39 38 -82 127 -135 281 -164 340
-186 373 -13 20 -32 53 -42 73 -41 80 -133 147 -198 147 -18 -1 -47 -7 -65
-15z m87 -372 c8 -15 20 -35 28 -45 7 -9 12 -29 10 -45 -3 -28 -3 -28 -78 -28
-74 0 -75 0 -78 27 -3 28 41 124 61 131 19 7 42 -9 57 -40z"/>
<path d="M8298 12566 c-148 -51 -230 -136 -279 -288 -88 -277 127 -551 431
-549 186 0 348 99 425 257 26 53 29 69 28 154 0 82 -4 105 -31 168 -53 126
-125 201 -244 250 -91 37 -235 41 -330 8z m166 -177 c70 -55 126 -188 133
-316 6 -106 -4 -132 -62 -160 -32 -15 -38 -15 -69 0 -43 20 -78 65 -109 142
-67 163 -74 270 -22 325 36 37 89 41 129 9z"/>
<path d="M9046 12575 c-28 -8 -61 -25 -73 -38 -33 -32 -19 -69 35 -90 22 -9
43 -24 46 -34 4 -10 10 -122 13 -250 7 -263 3 -280 -59 -319 -41 -26 -48 -52
-22 -78 13 -14 49 -16 241 -16 124 0 266 -5 314 -12 105 -14 113 -9 160 84 40
79 41 154 2 192 -38 39 -62 31 -98 -33 -38 -68 -66 -88 -136 -96 -51 -5 -60
-4 -85 19 l-29 24 -3 237 c-3 259 -1 270 55 297 23 11 28 20 28 48 0 28 -6 37
-35 54 -30 18 -54 21 -170 23 -91 1 -151 -3 -184 -12z"/>
<path d="M10141 12572 c-55 -27 -70 -57 -81 -155 -11 -97 -25 -134 -134 -362
-71 -147 -83 -164 -160 -218 -32 -22 -33 -47 -3 -75 20 -19 39 -23 133 -28
101 -5 112 -4 154 18 67 34 66 61 -5 112 -17 12 -18 17 -7 40 l12 26 125 0
c70 0 135 -5 146 -10 28 -15 23 -43 -10 -63 -57 -33 -49 -86 16 -109 26 -9 90
-13 199 -13 159 0 161 0 202 28 59 38 56 73 -9 105 -29 15 -44 37 -102 157
-38 77 -83 169 -100 205 -60 122 -127 235 -168 283 -63 74 -138 95 -208 59z
m61 -334 c8 -7 29 -38 46 -69 42 -77 32 -91 -62 -87 -88 4 -97 15 -66 83 22
50 47 85 60 85 3 0 13 -6 22 -12z"/>
<path d="M7119 12562 c-31 -22 -23 -55 28 -106 l46 -47 -6 -202 c-8 -241 -21
-311 -65 -361 -38 -44 -39 -50 -9 -80 l23 -23 315 2 314 1 52 30 c59 34 85 63
114 129 21 48 26 103 12 145 -13 39 -46 90 -63 95 -8 3 -30 19 -49 35 l-34 29
19 27 c50 70 64 101 64 144 -1 95 -60 168 -155 189 -74 16 -582 10 -606 -7z
m445 -133 c20 -23 26 -42 26 -78 0 -91 -29 -130 -87 -119 -16 3 -18 15 -21 93
-2 50 0 100 3 113 8 33 48 29 79 -9z m31 -361 c44 -53 28 -169 -28 -193 -65
-27 -87 2 -87 114 0 93 4 106 35 113 32 7 54 -2 80 -34z"/>
<path d="M6505 11328 c-20 -66 -1 -108 29 -63 19 29 20 47 4 63 -15 15 -28 15
-33 0z"/>
<path d="M8060 11320 c0 -6 7 -21 16 -35 23 -35 9 -86 -38 -140 -22 -25 -56
-52 -76 -60 -32 -14 -37 -14 -53 1 -23 21 -16 34 19 34 31 0 82 42 82 68 0 58
-90 56 -142 -3 -11 -13 -17 -37 -18 -67 0 -39 4 -50 26 -67 15 -12 33 -21 40
-21 16 0 92 39 100 51 10 17 36 9 56 -16 23 -30 36 -31 77 -7 25 14 34 15 48
4 10 -6 24 -15 31 -18 18 -9 72 16 72 32 0 20 8 17 47 -16 38 -34 46 -36 63
-15 7 8 17 15 22 15 5 0 22 14 38 31 l29 32 3 -39 c4 -51 24 -50 52 1 53 96
76 112 76 50 0 -43 25 -95 45 -95 8 0 25 5 39 11 14 7 40 9 62 4 l38 -7 -32
-25 c-37 -28 -43 -67 -13 -83 32 -17 41 -12 41 23 0 36 30 74 49 62 6 -3 11
-20 11 -36 0 -47 22 -30 45 34 14 37 31 65 50 79 17 11 40 34 53 49 23 29 23
29 2 29 -11 0 -23 -7 -26 -15 -4 -8 -12 -15 -19 -15 -7 0 -16 -7 -19 -16 -3
-8 -11 -12 -17 -8 -7 4 -9 25 -4 60 l6 54 -28 -1 c-15 -1 -41 -4 -58 -8 l-30
-7 33 -8 c39 -9 40 -17 5 -66 -47 -66 -93 -56 -60 13 21 43 5 58 -28 27 -14
-13 -25 -31 -25 -39 -1 -24 -36 -65 -49 -57 -6 4 -11 26 -11 49 0 47 -22 87
-47 87 -9 0 -27 -10 -40 -22 -20 -19 -27 -20 -43 -10 -32 19 -48 14 -65 -20
-20 -42 -45 -72 -72 -87 -28 -14 -35 -3 -33 52 5 87 -11 90 -60 12 -35 -53
-64 -75 -80 -58 -5 4 -4 42 2 83 18 125 17 144 -10 148 -13 2 -30 1 -38 -2
-13 -5 -13 -9 1 -30 13 -19 14 -34 7 -73 -11 -61 -57 -136 -80 -131 -14 3 -17
14 -15 68 2 36 8 82 14 102 9 29 9 41 -1 53 -14 17 -70 21 -70 5z m-95 -120
c10 -16 -14 -50 -35 -50 -20 0 -25 15 -14 44 7 18 39 22 49 6z"/>
<path d="M4817 11271 c4 -33 0 -65 -11 -97 -9 -26 -16 -67 -16 -90 0 -74 32
-65 45 13 4 24 11 46 16 49 5 3 23 -9 39 -26 34 -37 49 -33 100 27 l32 38 -6
-69 c-7 -69 1 -96 29 -96 8 0 14 32 19 103 13 183 13 172 -9 175 -16 2 -25 -7
-38 -36 -9 -21 -17 -43 -17 -49 0 -6 -7 -13 -15 -17 -8 -3 -15 -12 -15 -20 0
-13 -20 -26 -41 -26 -6 0 -19 21 -30 48 -11 26 -27 64 -36 85 -10 23 -23 37
-34 37 -16 0 -17 -6 -12 -49z"/>
<path d="M6837 11286 c-8 -19 1 -26 35 -26 35 0 44 -19 29 -61 -6 -17 -14 -60
-17 -95 -6 -59 -5 -64 12 -64 19 0 27 25 59 196 3 14 16 23 47 30 23 5 43 15
46 22 6 19 -204 17 -211 -2z"/>
<path d="M7697 11278 c-38 -33 -34 -60 18 -118 51 -57 56 -81 22 -103 -21 -14
-25 -13 -48 4 -32 24 -49 24 -49 -2 0 -13 11 -25 34 -34 30 -13 38 -13 65 1
69 35 79 89 26 149 -25 27 -35 47 -33 65 3 22 8 25 46 28 57 4 50 26 -9 30
-35 2 -51 -2 -72 -20z"/>
<path d="M9218 11293 c-10 -2 -18 -9 -18 -14 0 -5 -6 -9 -13 -9 -8 0 -29 -16
-47 -36 -37 -41 -51 -106 -30 -143 14 -28 68 -61 87 -54 7 3 23 -3 34 -13 29
-26 50 -9 71 62 28 93 27 96 -34 92 -30 -2 -53 -8 -56 -15 -2 -8 5 -13 17 -13
30 0 37 -27 15 -51 -28 -31 -65 -21 -87 22 -17 35 -17 38 0 75 28 60 48 76 96
74 62 -3 67 -1 67 15 0 11 -11 15 -42 14 -24 -1 -51 -3 -60 -6z"/>
<path d="M5720 11255 c0 -8 7 -15 15 -15 8 0 15 7 15 15 0 8 -7 15 -15 15 -8
0 -15 -7 -15 -15z"/>
<path d="M5803 11263 c-9 -3 -6 -13 9 -34 22 -29 22 -30 4 -64 -24 -45 -72
-89 -86 -80 -7 4 -10 28 -8 63 2 46 0 57 -13 60 -11 2 -20 -7 -27 -25 -6 -15
-24 -43 -41 -62 -25 -29 -32 -33 -45 -22 -9 8 -16 29 -16 50 0 86 -26 102 -87
55 -28 -21 -34 -23 -39 -10 -11 29 -41 17 -68 -27 -29 -46 -61 -71 -76 -62 -6
4 -10 32 -10 65 l0 58 -50 7 c-45 6 -54 4 -86 -20 -40 -31 -54 -60 -54 -114 0
-64 37 -80 84 -36 31 29 48 31 66 10 18 -21 64 -19 85 5 23 25 45 26 45 1 0
-10 6 -24 14 -30 12 -10 19 -8 35 8 12 12 21 26 21 31 0 20 51 91 63 87 7 -2
14 -29 17 -62 4 -44 10 -61 26 -72 19 -12 25 -11 53 13 l32 27 30 -29 c25 -24
32 -26 47 -16 26 18 64 33 70 27 3 -3 0 -28 -7 -56 -9 -35 -10 -54 -3 -61 19
-19 42 0 48 42 4 22 10 41 15 41 5 1 14 3 19 4 6 1 17 3 25 4 8 0 32 18 55 39
32 32 40 46 40 75 0 40 -28 74 -70 84 -14 3 -34 12 -45 19 -19 14 -49 17 -72
7z m-565 -76 c5 -27 -45 -99 -66 -95 -22 5 -21 56 3 92 20 31 58 32 63 3z
m692 -12 c8 -10 10 -28 5 -52 -9 -48 -21 -63 -52 -63 -25 0 -25 2 -21 56 6 68
37 96 68 59z"/>
<path d="M7267 11263 c-12 -11 -8 -21 13 -26 23 -6 28 -45 6 -53 -7 -3 -34 9
-59 25 -50 34 -78 39 -97 16 -7 -8 -20 -15 -29 -15 -26 0 -61 -54 -61 -94 0
-42 37 -76 84 -76 l31 1 -27 14 c-15 8 -30 24 -33 35 -10 32 4 77 28 92 50 32
82 -14 53 -73 -20 -39 -20 -49 -3 -49 19 0 44 30 52 63 6 22 13 27 36 27 29 0
29 -1 23 -42 -3 -24 -12 -66 -20 -95 -13 -49 -11 -83 6 -83 17 0 40 32 40 55
0 43 10 55 46 55 19 0 34 5 34 10 0 6 6 10 13 10 8 0 24 11 37 24 52 56 16
156 -56 156 -19 0 -34 6 -38 15 -5 15 -66 22 -79 8z m135 -80 c10 -9 18 -26
18 -39 0 -27 -30 -82 -48 -89 -22 -8 -54 14 -47 33 3 9 9 31 12 47 5 28 29 65
41 65 3 0 14 -7 24 -17z"/>
<path d="M8385 11261 c-3 -5 -1 -12 5 -16 12 -7 30 2 30 16 0 12 -27 12 -35 0z"/>
<path d="M6608 11229 c-23 -13 -24 -71 -2 -104 15 -23 14 -24 -15 -40 -39 -19
-42 -57 -7 -73 34 -15 96 27 96 66 0 19 10 36 30 52 27 23 40 50 23 50 -5 0
-19 -12 -32 -25 -13 -14 -27 -25 -32 -25 -16 0 -27 34 -22 72 6 40 -4 48 -39
27z"/>
<path d="M9434 11229 c-3 -6 -17 -14 -30 -19 -13 -5 -24 -16 -24 -24 0 -7 -7
-19 -15 -26 -36 -30 -8 -120 37 -120 20 0 68 45 68 65 0 19 -14 19 -30 0 -10
-12 -16 -13 -26 -4 -28 23 15 111 51 106 16 -2 20 -10 20 -42 2 -111 52 -144
122 -79 29 27 43 24 43 -11 0 -13 4 -26 8 -29 14 -8 52 23 52 43 0 9 5 22 12
29 9 9 8 21 -1 52 -16 54 -41 53 -81 -4 -56 -77 -108 -87 -96 -17 15 87 17 83
-46 87 -32 2 -60 -1 -64 -7z"/>
<path d="M10047 11215 c-20 -14 -46 -43 -57 -65 -21 -42 -54 -67 -65 -50 -3 5
-1 28 5 50 20 74 -16 108 -58 55 -11 -14 -24 -25 -29 -25 -6 0 -15 11 -21 25
-14 29 -42 32 -65 7 -21 -23 -21 -36 -2 -52 10 -8 13 -24 9 -53 -5 -44 6 -74
24 -63 6 4 26 33 44 66 18 33 37 60 41 60 5 0 6 -20 3 -44 -12 -77 21 -104 82
-69 28 16 30 16 59 -5 36 -26 66 -28 83 -7 7 8 20 15 29 15 17 0 111 94 111
111 0 17 -15 8 -55 -32 -58 -57 -145 -78 -145 -34 0 10 10 15 28 15 28 0 92
51 92 72 0 14 -42 47 -60 48 -9 0 -32 -11 -53 -25z m56 -12 c9 -16 -13 -53
-31 -53 -28 0 -33 10 -15 36 15 24 37 31 46 17z"/>
<path d="M6156 11177 c-29 -62 -59 -92 -82 -83 -17 6 -17 6 3 94 4 17 1 22
-15 22 -28 0 -42 -29 -45 -89 -4 -85 39 -106 97 -46 19 19 37 35 39 35 3 0 10
-14 16 -31 10 -30 13 -31 48 -26 21 4 39 11 41 17 6 16 32 12 32 -5 0 -8 9
-15 20 -15 45 0 75 141 33 157 -16 6 -53 -24 -53 -44 0 -15 -55 -73 -69 -73
-16 0 -21 31 -15 86 9 73 -15 74 -50 1z"/>
<path d="M6403 11213 c-35 -24 -30 -44 10 -36 37 7 62 26 53 42 -10 15 -37 13
-63 -6z"/>
<path d="M7560 11147 c0 -19 30 -31 44 -17 12 12 8 15 -21 24 -17 5 -23 3 -23
-7z"/>
<path d="M1010 10209 c-167 -10 -282 -62 -383 -174 -37 -40 -67 -76 -67 -79 0
-4 -11 -29 -25 -57 -57 -120 -53 215 -54 -4554 0 -2891 4 -4414 10 -4460 16
-108 83 -238 161 -310 34 -32 76 -63 93 -70 16 -7 33 -17 38 -21 10 -11 74
-34 122 -44 61 -14 11706 -13 11779 1 181 33 359 220 395 414 8 41 11 1363 11
4476 0 3773 -2 4426 -14 4471 -19 72 -43 127 -72 165 -13 17 -24 35 -24 40 -1
20 -123 119 -187 151 -21 11 -65 27 -98 37 -57 16 -383 17 -5825 19 -3171 0
-5808 -2 -5860 -5z m340 -243 c127 -40 203 -102 258 -210 34 -69 35 -75 36
-186 1 -110 -1 -118 -32 -182 -80 -162 -249 -256 -411 -228 -89 15 -142 41
-210 99 -160 139 -181 419 -43 572 111 124 268 177 402 135z m1251 -6 c93 -28
152 -70 209 -147 51 -69 61 -92 82 -195 9 -44 9 -69 -1 -115 -51 -233 -231
-370 -451 -342 -91 11 -142 37 -218 111 -81 79 -132 194 -132 297 0 51 44 190
72 227 69 93 122 131 228 165 72 24 134 23 211 -1z m1227 5 c94 -28 150 -63
203 -128 87 -104 115 -195 99 -324 -22 -172 -151 -315 -318 -350 -172 -36
-343 48 -428 209 -39 72 -39 74 -39 188 0 118 2 126 53 229 9 18 39 53 66 78
110 99 241 134 364 98z m1227 4 c126 -34 210 -101 270 -210 l40 -74 0 -120 c0
-117 -1 -121 -34 -182 -70 -131 -157 -196 -289 -220 -67 -11 -86 -11 -146 2
-84 19 -117 35 -182 91 -34 29 -64 67 -90 116 -36 69 -39 79 -42 177 -4 94 -2
109 23 172 71 181 278 295 450 248z m1259 -6 c68 -18 159 -75 200 -124 77 -91
112 -223 91 -343 -7 -40 -18 -84 -25 -97 -32 -62 -69 -109 -118 -149 -84 -71
-115 -83 -219 -88 -116 -5 -184 14 -268 78 -188 144 -214 432 -55 604 51 55
93 82 174 112 73 28 139 30 220 7z m1231 2 c89 -27 155 -67 199 -120 74 -90
106 -175 106 -282 0 -154 -85 -292 -225 -366 -57 -31 -65 -32 -175 -32 -109 0
-118 2 -169 30 -165 91 -249 253 -223 430 13 91 41 150 99 215 106 118 253
165 388 125z m1244 -1 c29 -8 72 -25 94 -37 51 -26 141 -119 163 -167 8 -19
21 -46 27 -59 7 -15 12 -70 12 -140 -1 -122 0 -117 -61 -223 -20 -34 -87 -98
-134 -128 -59 -38 -176 -61 -250 -50 -133 19 -244 102 -305 227 -36 74 -38 83
-38 178 0 92 2 105 31 165 93 191 282 287 461 234z m1220 5 c76 -17 149 -57
200 -108 66 -66 96 -121 116 -209 14 -61 15 -84 5 -140 -41 -237 -260 -397
-478 -347 -85 20 -127 43 -194 108 -67 64 -104 138 -120 244 -10 61 -9 81 7
140 23 88 43 127 96 186 94 107 238 156 368 126z m1262 -5 c126 -38 210 -110
267 -231 24 -52 27 -69 27 -168 0 -97 -4 -117 -26 -165 -36 -77 -127 -173
-197 -207 -52 -25 -67 -28 -167 -28 -100 0 -115 3 -166 28 -85 41 -145 99
-186 181 -33 65 -37 80 -41 177 -4 92 -2 112 17 154 11 26 21 53 21 59 0 21
100 125 146 152 103 60 208 77 305 48z m1251 -4 c119 -36 200 -109 254 -226
24 -52 27 -72 28 -164 1 -114 -5 -138 -60 -230 -32 -53 -106 -120 -169 -152
-82 -42 -241 -40 -330 5 -201 101 -289 353 -193 550 35 71 117 161 168 184
127 57 199 65 302 33z m-9897 -1072 c139 -48 237 -169 266 -329 10 -55 9 -77
-4 -136 -44 -197 -207 -332 -398 -333 -232 0 -434 243 -391 473 34 179 182
330 342 347 72 8 112 3 185 -22z m2424 21 c20 -6 69 -27 110 -47 82 -41 135
-98 180 -192 23 -49 26 -67 26 -170 0 -101 -3 -120 -23 -160 -114 -219 -327
-305 -524 -213 -216 101 -296 329 -200 567 23 56 124 153 191 182 86 38 181
51 240 33z m2450 1 c89 -15 188 -62 234 -113 75 -82 116 -186 117 -293 0 -159
-88 -301 -235 -377 -55 -29 -68 -31 -160 -32 -92 0 -105 2 -165 32 -121 59
-208 177 -231 315 -22 134 19 257 118 354 69 68 130 98 253 123 3 0 34 -4 69
-9z m1363 -38 c63 -29 136 -92 162 -141 62 -115 61 -110 60 -236 -1 -120 -1
-120 -37 -180 -70 -117 -150 -183 -254 -210 -141 -37 -263 -4 -368 100 -173
171 -176 421 -7 593 116 118 286 146 444 74z m2453 15 c71 -29 124 -72 173
-138 65 -88 84 -154 79 -269 -3 -81 -8 -104 -34 -155 -31 -61 -113 -150 -168
-184 -101 -61 -246 -68 -351 -16 -72 35 -148 110 -194 190 -35 60 -35 61 -35
185 0 116 2 129 27 180 57 114 155 194 278 226 59 16 162 7 225 -19z m-9937 5
c106 -34 179 -99 243 -222 21 -40 24 -58 24 -165 0 -106 -3 -125 -24 -165 -89
-172 -228 -259 -395 -248 -126 8 -251 89 -316 203 -43 75 -51 107 -51 206 1
101 24 178 75 247 51 70 94 102 186 141 64 26 178 27 258 3z m2529 -20 c96
-49 174 -139 208 -240 13 -41 16 -77 13 -151 -3 -83 -8 -106 -33 -156 -52
-103 -154 -189 -260 -220 -175 -51 -373 45 -462 224 -25 52 -27 65 -27 176 0
111 2 124 28 177 26 52 100 136 154 174 57 39 124 55 222 51 82 -3 103 -8 157
-35z m2428 23 c65 -19 147 -77 181 -128 16 -23 33 -45 37 -48 5 -3 19 -36 33
-73 27 -75 31 -161 13 -248 -19 -89 -98 -194 -189 -252 -149 -96 -356 -65
-482 73 -121 132 -148 305 -73 469 42 93 160 189 259 213 53 12 171 10 221 -6z
m3770 -24 c78 -44 99 -61 141 -116 129 -169 115 -390 -35 -544 -162 -166 -420
-158 -568 17 -57 68 -77 106 -98 188 -20 80 -19 115 4 195 30 106 102 201 189
251 74 42 101 48 212 44 86 -2 101 -6 155 -35z m2481 1 c80 -41 165 -132 194
-209 43 -114 36 -263 -15 -356 -37 -66 -118 -143 -188 -179 -57 -30 -69 -32
-162 -33 -90 0 -106 3 -158 28 -90 44 -167 123 -207 209 -32 67 -34 80 -34
168 1 73 6 108 23 152 42 108 134 198 244 239 42 16 71 19 147 16 82 -3 103
-8 156 -35z m-11171 -1057 c76 -37 162 -124 200 -201 28 -55 30 -66 30 -174 0
-111 -2 -117 -35 -184 -38 -76 -108 -145 -193 -192 -45 -24 -66 -29 -150 -32
-97 -4 -100 -4 -170 32 -161 81 -242 211 -239 381 2 91 23 162 63 220 56 79
85 103 186 155 55 29 64 30 153 27 81 -3 104 -8 155 -32z m1189 19 c64 -22
130 -60 164 -94 67 -66 132 -216 132 -301 0 -112 -86 -274 -177 -335 -92 -61
-145 -77 -243 -72 -122 6 -191 39 -276 132 -57 63 -68 81 -91 156 -20 66 -24
96 -20 140 9 84 33 151 74 212 38 54 102 118 120 118 5 0 14 5 21 12 43 43
211 61 296 32z m1244 1 c29 -9 52 -20 52 -25 0 -6 5 -10 11 -10 22 0 97 -56
127 -95 17 -22 43 -65 59 -95 26 -51 28 -63 28 -170 -1 -125 -8 -153 -61 -230
-45 -64 -79 -96 -142 -132 -195 -111 -437 -31 -543 179 -33 66 -34 72 -34 188
0 130 1 134 73 242 34 52 113 112 194 147 44 19 172 20 236 1z m1238 -1 c27
-9 68 -30 92 -45 24 -16 47 -29 52 -29 16 0 92 -111 112 -162 10 -27 23 -79
28 -117 22 -157 -71 -330 -222 -412 -61 -33 -67 -34 -173 -34 -104 0 -113 2
-170 32 -91 47 -173 139 -209 234 -21 55 -18 233 5 290 42 105 142 202 247
239 63 23 175 24 238 4z m1246 -3 c170 -58 278 -212 278 -393 0 -90 -22 -158
-77 -236 -68 -95 -139 -143 -249 -166 -119 -25 -239 11 -340 102 -111 100
-155 254 -116 405 36 139 118 228 267 288 57 24 169 24 237 0z m1283 -16 c109
-53 172 -123 211 -234 25 -70 34 -224 14 -236 -5 -3 -10 -14 -10 -23 0 -34
-48 -119 -96 -169 -27 -29 -76 -66 -109 -84 -52 -27 -73 -32 -156 -36 -82 -5
-102 -3 -142 15 -197 87 -296 254 -267 447 19 124 65 204 159 274 85 64 137
80 246 77 76 -2 99 -7 150 -31z m1198 16 c122 -42 216 -138 257 -262 19 -59
22 -84 17 -157 -6 -98 -21 -142 -76 -216 -47 -63 -75 -87 -148 -128 -52 -29
-67 -33 -155 -36 -92 -4 -101 -3 -164 27 -81 38 -114 65 -168 139 -67 92 -80
132 -80 236 -1 107 24 183 81 256 60 76 81 90 213 148 42 18 161 14 223 -7z
m1273 -17 c115 -54 191 -136 228 -249 4 -11 11 -51 16 -90 10 -77 -4 -155 -42
-229 -27 -54 -121 -145 -183 -178 -95 -51 -229 -54 -333 -8 -52 23 -161 130
-190 186 -25 50 -52 150 -52 196 0 66 36 174 77 231 85 119 190 175 330 176
63 1 83 -4 149 -35z m1197 19 c179 -57 287 -210 287 -405 0 -87 -15 -135 -67
-215 -46 -70 -84 -105 -157 -145 -59 -32 -65 -33 -171 -32 -88 0 -118 4 -150
20 -114 56 -189 136 -226 244 -18 52 -21 78 -17 163 5 112 16 145 80 233 89
124 274 185 421 137z m1287 -17 c167 -84 250 -228 237 -407 -12 -156 -91 -271
-242 -352 -34 -19 -56 -22 -155 -22 -115 0 -115 0 -176 37 -228 138 -289 398
-142 609 41 59 75 88 148 127 69 38 88 42 185 39 75 -3 99 -8 145 -31z
m-11142 -1072 c81 -41 125 -85 178 -180 30 -54 35 -73 41 -157 5 -84 3 -105
-17 -164 -76 -225 -332 -344 -529 -246 -31 16 -60 31 -66 35 -110 81 -166 181
-179 318 -7 71 9 152 43 218 28 55 103 134 147 157 22 10 46 25 55 32 25 21
97 32 179 28 61 -3 87 -10 148 -41z m1152 35 c79 -18 184 -85 223 -143 48 -70
62 -101 81 -174 20 -80 20 -116 0 -178 -54 -165 -141 -259 -286 -304 -77 -24
-129 -25 -199 -4 -149 45 -243 138 -290 288 -24 77 -24 128 0 215 24 87 40
116 95 177 93 105 243 153 376 123z m1242 -1 c103 -23 225 -123 274 -226 24
-49 29 -73 32 -164 4 -104 3 -108 -29 -174 -50 -101 -98 -155 -182 -202 -168
-95 -377 -48 -495 111 -53 73 -72 121 -82 207 -14 125 29 259 106 330 122 112
238 149 376 118z m1257 -4 c98 -34 152 -72 210 -149 47 -63 66 -107 80 -192
11 -70 1 -156 -25 -219 -62 -149 -242 -264 -393 -252 -162 14 -311 135 -358
290 -25 84 -14 227 22 303 35 74 123 164 190 195 88 40 200 50 274 24z m1229
4 c85 -21 181 -92 234 -173 67 -104 85 -205 57 -330 -14 -63 -23 -82 -77 -157
-62 -84 -202 -158 -302 -158 -99 0 -238 65 -306 143 -47 55 -68 97 -88 180
-32 127 14 298 102 382 44 43 129 93 186 111 52 16 134 17 194 2z m1299 -23
c154 -70 243 -213 243 -389 0 -176 -129 -341 -306 -389 -75 -21 -101 -21 -182
-1 -257 65 -381 355 -257 601 45 89 167 184 264 204 63 14 179 1 238 -26z
m1252 -6 c78 -38 145 -105 192 -193 32 -59 33 -65 33 -176 1 -104 -2 -120 -26
-170 -79 -167 -254 -270 -414 -243 -140 24 -253 111 -316 243 -28 59 -31 75
-32 165 0 88 3 107 25 155 55 118 161 215 266 246 78 22 193 11 272 -27z
m1239 -1 c126 -62 198 -155 225 -289 34 -168 -33 -332 -175 -425 -107 -70
-198 -88 -303 -60 -66 17 -101 36 -163 88 -112 93 -167 236 -143 373 22 130
85 227 193 296 106 69 250 75 366 17z m1244 0 c148 -79 228 -211 228 -379 0
-283 -305 -491 -548 -373 -79 38 -114 66 -162 131 -66 87 -83 147 -77 273 6
134 26 181 110 265 93 93 183 128 311 119 64 -4 91 -11 138 -36z m1154 31 c34
-6 77 -23 102 -40 24 -16 46 -29 50 -29 13 0 88 -83 105 -115 55 -103 73 -242
42 -336 -50 -154 -170 -262 -320 -290 -100 -18 -183 1 -280 66 -88 58 -139
134 -170 251 -34 129 0 258 94 366 98 110 228 154 377 127z m-11079 -1092 c75
-36 158 -119 199 -198 26 -50 28 -62 29 -174 0 -118 -1 -121 -34 -183 -47 -86
-121 -159 -201 -196 -58 -27 -75 -30 -160 -30 -87 0 -101 3 -163 34 -76 37
-162 124 -197 198 -27 57 -42 175 -30 245 20 122 111 244 225 302 102 51 230
52 332 2z m1212 12 c71 -26 130 -69 172 -127 111 -151 125 -293 43 -449 -51
-99 -129 -166 -232 -202 -79 -27 -155 -27 -234 1 -80 27 -123 54 -175 111
-154 167 -147 416 16 573 121 117 259 148 410 93z m1230 4 c181 -60 300 -257
272 -448 -12 -77 -39 -138 -90 -199 -96 -114 -166 -148 -306 -149 -91 -1 -105
1 -160 28 -75 37 -163 126 -201 202 -26 54 -28 67 -29 178 0 117 1 122 33 183
96 184 293 267 481 205z m1276 -17 c85 -40 152 -105 197 -195 32 -62 33 -70
33 -180 0 -107 -2 -120 -29 -174 -37 -76 -114 -154 -196 -197 -62 -33 -70 -34
-165 -34 -92 0 -105 3 -167 33 -86 41 -167 129 -203 219 -20 49 -25 80 -25
144 0 127 38 225 119 306 119 120 283 149 436 78z m2445 16 c102 -37 175 -103
227 -208 77 -157 50 -336 -73 -472 -102 -115 -290 -152 -430 -86 -28 13 -56
24 -61 24 -19 0 -132 129 -151 173 -11 25 -25 77 -32 116 -23 136 20 265 117
357 119 112 262 147 403 96z m1240 1 c98 -35 179 -110 232 -213 31 -62 33 -70
33 -180 0 -111 -1 -117 -33 -175 -50 -92 -116 -158 -197 -196 -63 -29 -79 -33
-160 -33 -76 0 -100 4 -155 27 -87 37 -160 110 -207 205 -35 70 -36 78 -36
175 1 104 4 115 59 220 26 48 116 129 171 154 95 44 198 49 293 16z m-2438
-17 c103 -52 196 -171 220 -279 14 -68 5 -202 -19 -252 -29 -64 -90 -141 -141
-178 -75 -55 -134 -72 -237 -71 -81 0 -97 4 -159 35 -49 24 -84 51 -124 95
-58 65 -74 98 -100 204 -19 79 -6 173 35 259 33 71 121 156 198 192 56 27 68
29 165 26 93 -2 111 -5 162 -31z m3721 0 c71 -37 160 -128 193 -200 14 -30 29
-82 35 -116 27 -169 -77 -357 -238 -433 -61 -28 -77 -31 -158 -31 -127 1 -190
27 -274 112 -69 71 -103 133 -122 229 -25 121 20 260 116 357 92 93 150 116
290 113 88 -2 107 -6 158 -31z m1197 17 c107 -40 189 -115 238 -220 24 -52 27
-69 27 -168 0 -104 -2 -114 -33 -177 -44 -92 -111 -159 -197 -200 -64 -30 -78
-33 -165 -33 -86 1 -101 4 -162 34 -76 36 -152 113 -196 196 -25 46 -27 59
-27 175 0 121 1 127 32 187 42 80 116 153 194 192 56 28 71 31 153 31 60 0
106 -6 136 -17z m1280 -18 c133 -67 215 -185 226 -327 8 -93 -8 -186 -42 -245
-39 -66 -117 -139 -186 -174 -58 -30 -70 -33 -163 -33 -93 0 -104 2 -165 33
-173 87 -261 256 -230 445 21 132 116 253 242 311 44 20 70 24 151 24 92 1
101 -1 167 -34z m-11160 -1062 c72 -35 158 -123 195 -198 28 -56 30 -68 29
-175 0 -108 -2 -119 -32 -180 -61 -125 -147 -191 -292 -225 -70 -16 -79 -16
-139 -1 -97 25 -130 44 -207 120 -91 92 -117 156 -115 288 1 126 26 192 108
279 125 132 297 167 453 92z m2497 -5 c57 -26 147 -127 184 -206 27 -55 30
-74 31 -155 0 -77 -4 -102 -26 -157 -62 -152 -217 -260 -373 -260 -151 0 -290
90 -356 230 -29 61 -31 72 -31 180 -1 109 1 118 31 180 101 207 331 287 540
188z m1153 31 c25 -6 52 -15 60 -20 8 -5 26 -14 39 -19 40 -18 142 -132 169
-190 23 -49 26 -68 26 -170 1 -108 -1 -119 -29 -175 -35 -72 -123 -163 -185
-192 -82 -38 -120 -46 -200 -40 -103 7 -171 37 -243 106 -167 161 -176 406
-22 579 62 69 113 101 196 121 74 18 122 18 189 0z m7399 10 c164 -28 297
-157 332 -321 23 -104 -3 -236 -63 -325 -115 -170 -356 -225 -523 -118 -147
93 -220 249 -196 418 12 85 42 148 101 211 62 68 137 114 212 130 35 7 65 14
67 15 2 0 34 -4 70 -10z m-9865 -14 c97 -30 176 -93 232 -188 36 -61 64 -153
64 -208 -1 -93 -67 -237 -138 -305 -47 -44 -129 -84 -202 -100 -65 -13 -76
-13 -145 5 -97 25 -151 57 -218 132 -114 125 -136 305 -56 460 27 53 125 156
168 177 88 42 208 53 295 27z m3721 0 c27 -9 67 -27 87 -40 21 -14 41 -25 45
-25 9 0 55 -56 88 -105 33 -48 46 -86 59 -162 21 -119 -12 -242 -90 -332 -155
-178 -411 -187 -583 -20 -63 62 -96 127 -112 227 -22 135 29 279 131 369 42
37 123 82 165 93 51 13 157 11 210 -5z m1297 -23 c81 -40 149 -111 192 -202
29 -60 31 -73 31 -170 0 -96 -3 -110 -31 -170 -82 -174 -260 -270 -430 -234
-89 18 -143 47 -208 111 -96 97 -143 240 -117 364 25 121 68 187 178 271 67
51 126 68 233 65 74 -2 94 -6 152 -35z m1173 24 c133 -35 246 -151 281 -287
24 -92 15 -206 -21 -281 -75 -158 -253 -262 -407 -237 -140 23 -250 106 -320
242 -29 58 -32 69 -31 164 0 96 2 105 36 175 93 188 272 275 462 224z m1301
-21 c63 -32 163 -124 190 -176 45 -87 61 -206 39 -291 -23 -89 -50 -134 -114
-198 -76 -74 -150 -110 -246 -117 -124 -10 -225 29 -312 119 -62 64 -96 130
-114 221 -16 84 -3 161 43 257 34 71 76 115 153 165 68 43 114 55 216 52 72
-3 95 -8 145 -32z m1185 21 c69 -21 109 -44 157 -90 92 -88 132 -181 132 -307
0 -113 -31 -192 -108 -279 -69 -77 -138 -113 -250 -129 -148 -22 -332 83 -397
226 -43 95 -48 259 -10 340 8 17 15 34 15 38 0 17 97 127 128 147 106 66 229
85 333 54z m-9861 -1088 c82 -40 151 -110 192 -196 31 -63 33 -73 33 -177 0
-105 -2 -114 -33 -178 -43 -86 -110 -153 -196 -196 -66 -32 -70 -33 -179 -30
l-112 4 -72 48 c-86 57 -121 96 -159 173 -27 55 -29 67 -29 179 1 145 10 174
85 264 122 145 307 188 470 109z m1242 -1 c62 -28 85 -45 123 -93 140 -175
148 -345 26 -526 -36 -53 -64 -79 -116 -106 -82 -43 -116 -52 -206 -52 -78 0
-97 4 -154 31 -112 53 -191 145 -225 265 -25 86 -25 131 -1 215 24 86 40 115
97 178 48 53 89 79 179 113 78 29 181 20 277 -25z m1238 0 c84 -41 146 -104
193 -195 36 -68 38 -78 39 -165 1 -69 -4 -106 -18 -143 -25 -66 -88 -160 -122
-181 -15 -10 -29 -20 -32 -23 -3 -3 -33 -20 -68 -38 -58 -31 -69 -34 -156 -33
-86 0 -100 3 -162 33 -214 104 -297 349 -191 567 50 101 166 192 272 212 78
15 175 2 245 -34z m1252 -4 c53 -28 85 -55 125 -102 29 -36 53 -70 53 -75 0
-6 7 -24 16 -41 22 -43 33 -151 22 -220 -19 -123 -111 -244 -230 -303 -59 -29
-75 -32 -153 -32 -110 0 -181 24 -261 89 -68 54 -117 133 -134 212 -17 78 -8
202 18 269 30 76 115 168 188 205 78 38 114 45 207 40 67 -4 89 -10 149 -42z
m1224 8 c131 -61 224 -196 232 -339 9 -160 -44 -280 -163 -365 -37 -27 -86
-55 -108 -63 -55 -20 -204 -18 -248 2 -99 47 -125 63 -166 109 -181 198 -124
527 111 647 78 40 114 48 204 43 55 -3 89 -11 138 -34z m1249 -5 c138 -64 224
-208 225 -376 0 -155 -91 -299 -236 -369 -56 -27 -73 -31 -151 -31 -126 0
-189 24 -285 109 -92 81 -144 245 -118 373 31 162 158 296 310 329 69 15 179
0 255 -35z m1229 5 c82 -37 152 -107 198 -200 31 -63 33 -72 33 -176 0 -129
-12 -167 -84 -257 -46 -57 -103 -100 -170 -127 -42 -17 -227 -27 -244 -13 -7
5 -25 12 -41 16 -41 10 -140 89 -175 139 -58 85 -76 143 -75 247 1 86 4 101
34 162 61 125 166 214 280 239 69 15 172 3 244 -30z m1242 -1 c84 -38 150
-105 196 -198 31 -62 33 -73 33 -172 0 -125 -15 -172 -81 -257 -84 -108 -177
-153 -318 -153 -85 0 -99 3 -151 30 -84 44 -133 87 -173 149 -36 56 -72 169
-72 225 0 60 33 171 66 221 117 178 314 240 500 155z m1229 6 c76 -34 127 -78
175 -149 57 -86 74 -149 68 -262 -4 -80 -9 -100 -39 -155 -78 -146 -204 -223
-364 -221 -73 0 -92 4 -152 33 -252 122 -318 448 -131 652 61 68 136 113 208
126 74 14 175 4 235 -24z m1251 -5 c175 -82 269 -287 220 -481 -32 -123 -103
-210 -219 -268 -60 -31 -74 -33 -162 -34 -89 0 -101 2 -159 32 -172 87 -263
249 -241 428 18 148 127 285 265 334 70 26 80 27 158 23 55 -3 89 -11 138 -34z
m-11233 -1037 c113 -29 217 -116 273 -229 27 -56 29 -68 29 -175 -1 -106 -3
-119 -30 -174 -39 -79 -122 -161 -201 -198 -85 -40 -210 -43 -303 -8 -74 27
-157 102 -204 182 -134 226 -4 532 253 600 82 21 108 22 183 2z m1304 -24 c35
-16 81 -44 101 -62 36 -31 92 -101 92 -115 0 -3 6 -14 13 -22 7 -9 21 -49 32
-89 16 -65 16 -82 5 -143 -21 -120 -87 -229 -176 -288 -69 -47 -137 -66 -234
-66 -76 0 -92 4 -150 33 -116 59 -187 146 -222 271 -24 88 -23 131 8 227 49
157 164 256 334 288 50 9 133 -5 197 -34z m1217 10 c75 -29 111 -55 172 -126
68 -80 94 -151 94 -253 0 -142 -53 -254 -159 -335 -74 -58 -136 -77 -241 -78
-70 -1 -95 3 -144 24 -102 44 -168 110 -217 218 -25 55 -31 89 -30 170 2 282
269 475 525 380z m1197 14 c128 -38 195 -91 270 -215 33 -53 34 -56 34 -174 0
-117 -1 -122 -34 -190 -142 -289 -517 -315 -688 -47 -104 162 -83 374 50 514
61 64 96 84 187 109 82 22 113 23 181 3z m1237 -1 c145 -36 258 -143 299 -282
25 -86 14 -214 -25 -294 -106 -214 -326 -293 -532 -191 -184 92 -263 287 -204
500 36 128 145 229 291 269 66 18 93 18 171 -2z m1243 1 c151 -45 230 -119
291 -274 23 -57 24 -181 3 -241 -46 -132 -106 -204 -215 -259 -55 -28 -73 -32
-154 -33 -119 -3 -194 25 -276 100 -104 95 -149 226 -129 370 12 89 47 158
114 226 101 104 243 147 366 111z m1221 5 c124 -27 236 -116 294 -234 27 -55
29 -69 29 -170 0 -126 -12 -165 -79 -253 -46 -58 -102 -103 -173 -134 -38 -17
-68 -22 -143 -22 -90 0 -98 2 -166 38 -92 48 -140 97 -189 192 -39 76 -40 79
-39 178 2 102 6 117 60 218 23 43 107 124 152 147 48 24 134 49 174 50 15 1
51 -4 80 -10z m1253 -3 c225 -60 358 -272 306 -490 -21 -88 -54 -147 -118
-210 -252 -249 -665 -64 -667 300 -1 89 16 142 72 227 64 97 118 137 227 168
74 22 115 23 180 5z m1238 -1 c145 -38 250 -134 297 -271 66 -190 -23 -409
-200 -498 -198 -99 -422 -24 -531 176 -34 62 -34 65 -34 188 0 119 1 128 30
184 36 71 116 156 173 185 44 23 139 49 182 50 14 1 52 -6 83 -14z m1240 0
c127 -33 232 -118 284 -230 26 -55 28 -70 28 -175 0 -105 -2 -120 -27 -170
-44 -89 -109 -154 -194 -197 -72 -35 -80 -37 -174 -36 -91 0 -104 3 -164 32
-82 41 -157 120 -199 208 -29 62 -31 76 -31 163 1 105 17 159 73 242 58 86
133 137 239 162 75 19 97 19 165 1z m-11108 -1075 c48 -18 129 -76 165 -117
18 -20 47 -67 64 -103 29 -61 31 -72 30 -175 0 -99 -3 -116 -27 -166 -38 -80
-79 -128 -145 -171 -138 -92 -301 -91 -440 1 -206 137 -237 430 -66 620 46 52
133 108 188 122 41 11 193 4 231 -11z m1222 4 c51 -18 150 -77 171 -103 70
-88 122 -208 122 -284 0 -123 -85 -285 -183 -350 -131 -86 -282 -91 -422 -15
-32 17 -120 106 -149 150 -22 34 -56 160 -56 212 0 94 64 234 139 301 46 41
142 93 182 98 79 9 151 6 196 -9z m1300 -25 c104 -60 163 -127 202 -230 29
-74 29 -225 1 -286 -48 -107 -116 -179 -210 -226 -56 -27 -78 -32 -156 -35
-86 -4 -95 -2 -165 30 -73 34 -150 97 -180 148 -41 69 -54 124 -54 235 1 104
2 113 34 177 41 81 91 135 167 179 74 42 108 49 217 44 76 -3 95 -8 144 -36z
m1167 26 c105 -28 191 -96 251 -200 55 -95 60 -268 11 -369 -40 -82 -112 -155
-192 -196 -61 -31 -79 -35 -159 -38 -85 -4 -94 -2 -165 31 -87 41 -113 62
-167 137 -59 82 -73 126 -73 233 0 102 21 174 74 252 89 131 259 192 420 150z
m1300 -19 c136 -67 223 -195 233 -344 9 -125 -22 -219 -99 -307 -79 -90 -182
-137 -299 -137 -66 0 -86 5 -150 35 -129 60 -207 157 -235 294 -14 65 -15 88
-4 146 29 164 123 270 300 341 8 3 56 4 107 2 75 -3 102 -8 147 -30z m1239 0
c229 -112 305 -387 168 -607 -38 -61 -88 -103 -171 -146 -72 -36 -203 -45
-277 -17 -139 52 -233 158 -273 309 -42 164 52 363 214 451 67 36 104 44 204
40 63 -3 94 -10 135 -30z m1250 -6 c103 -51 162 -119 206 -238 33 -86 27 -220
-13 -302 -41 -86 -115 -163 -194 -202 -63 -31 -73 -33 -172 -33 -97 0 -110 2
-165 30 -78 39 -153 117 -193 199 -93 192 -11 437 181 542 68 37 105 44 205
39 67 -3 94 -10 145 -35z m1212 14 c199 -94 299 -293 246 -491 -46 -177 -211
-303 -395 -303 -195 0 -354 145 -387 353 -12 69 -11 85 5 144 9 37 27 84 38
106 45 89 170 190 258 208 60 13 191 3 235 -17z m1219 7 c267 -94 364 -428
188 -647 -90 -112 -193 -159 -334 -152 -104 5 -178 39 -254 116 -90 91 -127
201 -114 334 13 135 80 243 192 310 38 23 86 45 107 49 70 13 160 9 215 -10z
m1282 -16 c70 -34 162 -125 192 -189 48 -102 53 -240 11 -349 -30 -80 -117
-171 -199 -210 -83 -40 -213 -50 -288 -21 -107 40 -197 124 -247 230 -73 154
-12 389 125 488 103 74 143 86 262 82 71 -3 98 -9 144 -31z"/>
<path d="M1238 9734 c-23 -20 -45 -38 -47 -40 -2 -1 6 -15 17 -29 22 -27 22
-31 9 -245 -2 -23 1 -25 43 -25 43 0 45 1 44 28 0 15 -1 99 -2 187 -1 88 -6
160 -11 160 -5 0 -29 -16 -53 -36z"/>
<path d="M2448 9793 c-9 -2 -27 -20 -38 -38 -17 -27 -19 -38 -10 -55 19 -36
46 -25 56 22 19 89 72 41 59 -52 -5 -34 -21 -64 -66 -123 -46 -59 -60 -84 -57
-105 3 -27 4 -27 89 -30 100 -3 119 7 119 64 0 36 -10 43 -29 20 -14 -17 -72
-29 -95 -20 -28 11 -17 40 26 70 63 44 98 98 98 151 0 77 -66 119 -152 96z"/>
<path d="M3705 9760 c-44 -17 -65 -81 -34 -101 23 -14 34 -4 39 36 8 61 46 56
56 -7 6 -36 -12 -67 -47 -81 -10 -4 -5 -14 19 -37 29 -28 32 -37 32 -89 0 -45
-4 -60 -16 -65 -24 -9 -42 10 -46 47 -2 27 -7 32 -28 32 -20 0 -26 -6 -28 -28
-3 -21 5 -35 28 -57 47 -44 103 -38 154 17 35 38 34 80 -4 128 -34 42 -36 53
-16 61 26 10 40 60 26 94 -22 54 -77 74 -135 50z"/>
<path d="M5003 9753 c-4 -10 -26 -46 -50 -80 -24 -35 -43 -66 -43 -69 0 -3 -9
-17 -20 -31 -23 -30 -26 -61 -6 -69 11 -4 42 -9 77 -13 14 -2 19 -33 8 -52
-16 -32 6 -51 55 -47 l41 3 -3 43 c-3 31 2 49 14 63 15 17 15 19 0 25 -13 5
-16 23 -16 109 0 57 -3 110 -6 119 -8 21 -43 20 -51 -1z m-29 -159 c11 -42 -2
-66 -32 -62 -33 4 -39 29 -15 62 23 33 39 33 47 0z"/>
<path d="M6170 9720 c-6 -10 -13 -55 -16 -100 -6 -88 1 -98 42 -59 l22 21 21
-21 c35 -35 24 -173 -15 -179 -17 -2 -22 4 -30 40 -7 34 -14 44 -32 46 -20 3
-22 -1 -22 -36 0 -74 74 -106 145 -62 76 47 73 185 -5 225 -16 8 -40 15 -53
15 -37 0 -50 21 -31 49 12 16 25 22 48 20 60 -4 66 -1 66 31 l0 30 -65 0 c-54
0 -66 -3 -75 -20z"/>
<path d="M7437 9715 c-20 -14 -43 -38 -51 -54 -19 -36 -31 -145 -22 -203 9
-60 53 -108 98 -108 69 0 108 54 108 150 0 92 -25 130 -86 130 -42 0 -42 30
-1 65 20 18 37 35 37 39 0 15 -48 4 -83 -19z m53 -197 c6 -81 -1 -123 -20
-123 -12 0 -16 18 -18 84 -3 92 1 115 21 109 7 -3 14 -30 17 -70z"/>
<path d="M8630 9741 c-13 -25 -13 -58 0 -66 5 -3 21 1 34 10 31 21 80 16 84
-7 2 -10 -8 -42 -21 -70 -28 -58 -42 -108 -52 -181 l-6 -48 48 3 c41 3 48 6
45 23 -11 83 3 187 39 277 29 71 22 78 -77 78 -72 0 -85 -3 -94 -19z"/>
<path d="M9886 9735 c-31 -29 -36 -91 -9 -135 15 -27 15 -29 -5 -55 -31 -39
-29 -95 4 -134 22 -26 33 -31 71 -31 55 0 78 12 98 50 21 41 19 93 -7 135 -20
35 -20 38 -5 65 40 66 2 130 -76 130 -33 0 -51 -6 -71 -25z m108 -22 c38 -52
-13 -110 -54 -61 -22 26 -24 41 -10 69 15 26 41 23 64 -8z m-12 -218 c24 -28
23 -72 -2 -85 -61 -33 -117 73 -62 117 17 14 32 6 64 -32z"/>
<path d="M11149 9777 c-23 -18 -47 -69 -55 -116 -12 -78 49 -176 89 -143 15
12 37 -2 37 -23 0 -16 -40 -51 -67 -60 -29 -8 -29 -21 -2 -28 49 -13 132 50
149 113 24 86 6 212 -35 248 -29 25 -89 30 -116 9z m73 -110 c5 -63 4 -85 -7
-96 -25 -25 -35 -2 -35 84 0 46 3 91 6 100 13 33 28 -5 36 -88z"/>
<path d="M12272 9749 c-41 -40 -42 -42 -27 -65 18 -27 22 -228 5 -239 -5 -3
-10 -13 -10 -21 0 -10 14 -14 56 -14 l57 0 -7 61 c-3 34 -6 120 -6 190 0 97
-3 129 -12 129 -7 0 -32 -19 -56 -41z"/>
<path d="M12468 9776 c-56 -42 -78 -209 -39 -298 22 -53 41 -69 78 -70 73 -2
105 49 111 175 5 100 -13 165 -53 191 -29 19 -74 20 -97 2z m72 -176 c0 -94
-4 -131 -14 -146 -14 -19 -15 -19 -23 1 -4 11 -8 76 -8 145 0 69 4 134 8 145
8 20 9 20 23 1 10 -15 14 -52 14 -146z"/>
<path d="M2327 8682 c-42 -43 -43 -47 -22 -68 19 -19 22 -213 4 -231 -22 -22
-2 -43 39 -43 45 0 67 19 57 50 -4 11 -7 89 -8 173 -2 174 -7 183 -70 119z"/>
<path d="M2495 8696 c-28 -28 -32 -53 -12 -80 15 -21 47 -12 47 14 0 10 4 30
10 44 12 33 35 25 49 -17 16 -45 -10 -117 -71 -195 -36 -47 -48 -70 -46 -90 3
-27 3 -27 95 -30 100 -3 93 -7 108 66 8 37 0 39 -35 12 -28 -22 -80 -26 -98
-8 -18 18 -16 22 34 58 60 43 104 104 104 145 0 18 -10 47 -23 66 -21 31 -27
34 -80 37 -50 3 -60 0 -82 -22z"/>
<path d="M4807 8681 l-41 -39 18 -34 c15 -28 17 -50 14 -133 -2 -55 -8 -108
-12 -118 -8 -16 -4 -18 44 -15 l52 3 -1 179 c-1 99 -4 183 -7 188 -10 15 -25
8 -67 -31z"/>
<path d="M5074 8688 c-12 -18 -40 -61 -63 -96 -22 -35 -41 -68 -41 -73 0 -5
-4 -9 -9 -9 -16 0 -23 -40 -10 -56 9 -11 22 -14 41 -10 38 8 73 -25 58 -54
-22 -41 -13 -50 45 -50 58 0 61 3 45 46 -8 21 -7 32 6 51 14 22 14 26 0 42
-11 12 -16 45 -18 126 -3 123 -16 142 -54 83z m-23 -181 c-10 -27 -43 -37 -56
-17 -10 17 6 57 28 68 29 13 42 -13 28 -51z"/>
<path d="M7545 8668 c-73 -25 -105 -86 -107 -198 -1 -55 4 -85 18 -115 35 -73
118 -85 164 -23 20 27 24 44 24 110 0 68 -3 81 -24 103 -16 17 -34 25 -57 25
-26 0 -33 4 -33 20 0 19 36 60 52 60 4 0 8 7 8 15 0 17 -4 17 -45 3z m25 -245
c0 -82 -1 -84 -22 -81 -21 3 -23 9 -26 82 -3 80 5 100 35 89 9 -4 13 -28 13
-90z"/>
<path d="M7298 8632 c-41 -42 -46 -57 -22 -66 13 -5 15 -23 12 -119 -2 -61 -6
-118 -8 -125 -3 -8 3 -19 12 -25 23 -16 95 3 88 23 -3 8 -6 90 -8 183 -3 191
-7 197 -74 129z"/>
<path d="M8708 8678 c-35 -35 -16 -74 26 -58 34 12 83 13 90 1 4 -5 -4 -31
-15 -58 -26 -58 -68 -213 -62 -229 5 -13 68 -24 81 -15 4 4 8 44 9 91 1 83 21
177 50 234 21 40 7 49 -84 50 -62 1 -82 -3 -95 -16z"/>
<path d="M8546 8653 c-38 -35 -38 -36 -22 -63 20 -35 23 -209 4 -240 -11 -17
-10 -22 2 -30 15 -10 81 -3 90 9 3 3 4 86 2 184 -4 202 -6 205 -76 140z"/>
<path d="M11217 8698 c-44 -37 -61 -135 -36 -207 13 -36 35 -51 78 -51 56 0
34 -54 -32 -79 -37 -14 -34 -31 6 -31 45 0 112 49 132 96 18 43 20 160 3 215
-14 49 -34 67 -83 74 -33 5 -45 2 -68 -17z m83 -115 c0 -83 -9 -105 -35 -83
-22 18 -21 153 1 175 26 25 34 3 34 -92z"/>
<path d="M11033 8675 c-34 -35 -40 -54 -23 -71 16 -16 16 -204 1 -233 -17 -31
-1 -42 59 -39 39 3 44 6 41 23 -2 11 -6 94 -10 185 -7 185 -11 193 -68 135z"/>
<path d="M1132 8662 c-47 -41 -50 -49 -25 -67 14 -10 16 -29 14 -115 -1 -57
-7 -112 -12 -123 -15 -28 1 -39 52 -35 l43 3 -3 180 c-1 99 -5 183 -8 187 -7
13 -16 9 -61 -30z"/>
<path d="M1310 8655 c-34 -35 -34 -35 -17 -64 13 -22 17 -52 17 -124 0 -53 -4
-99 -10 -102 -5 -3 -10 -15 -10 -26 0 -16 7 -19 44 -19 48 0 71 17 55 40 -5 9
-9 82 -7 170 2 147 1 155 -18 158 -12 2 -33 -11 -54 -33z"/>
<path d="M3769 8694 c-31 -16 -44 -56 -29 -84 9 -16 15 -18 30 -10 11 6 20 21
20 34 0 13 6 29 14 35 12 10 17 8 25 -8 25 -46 6 -104 -40 -125 -11 -5 -11 -7
-2 -12 35 -16 51 -42 57 -91 5 -40 3 -55 -10 -67 -20 -21 -44 -5 -44 29 0 27
-24 49 -45 41 -23 -8 -18 -59 8 -83 36 -33 93 -38 132 -12 60 42 66 110 13
167 l-22 22 24 32 c30 41 28 83 -6 119 -31 33 -79 37 -125 13z"/>
<path d="M3587 8667 c-41 -35 -44 -47 -23 -80 15 -23 16 -190 1 -234 -7 -22
-5 -23 43 -23 52 0 73 13 53 33 -7 7 -11 68 -11 174 0 124 -3 163 -12 163 -7
-1 -30 -15 -51 -33z"/>
<path d="M6076 8634 c-47 -41 -49 -44 -33 -62 14 -15 17 -39 17 -121 0 -56 -5
-111 -10 -121 -12 -23 2 -34 45 -36 46 -1 67 13 55 36 -5 10 -10 90 -10 179 0
88 -3 162 -7 164 -5 3 -30 -15 -57 -39z"/>
<path d="M6253 8664 c-10 -7 -17 -38 -20 -97 -5 -74 -4 -87 10 -87 8 0 17 7
21 15 7 19 40 19 55 1 7 -9 11 -42 9 -88 -3 -71 -4 -73 -30 -76 -25 -3 -28 0
-28 25 0 42 -15 61 -37 47 -31 -19 -28 -58 7 -88 80 -67 191 9 174 120 -10 67
-43 102 -102 106 -41 3 -47 6 -50 27 -5 29 12 41 60 41 50 0 87 37 56 57 -19
11 -109 10 -125 -3z"/>
<path d="M9993 8693 c-30 -6 -63 -49 -63 -82 1 -14 7 -37 15 -51 19 -33 19
-59 -1 -81 -9 -10 -18 -36 -21 -58 -5 -38 -2 -44 31 -76 24 -23 47 -35 65 -35
40 0 89 27 105 58 18 35 13 107 -8 130 -20 23 -21 56 -1 72 34 28 6 120 -37
120 -17 0 -19 -4 -13 -22 15 -48 16 -74 3 -91 -13 -18 -15 -17 -41 3 -33 27
-37 74 -7 90 18 10 20 32 2 29 -4 -1 -17 -4 -29 -6z m38 -230 c36 -22 55 -64
40 -91 -15 -27 -45 -36 -70 -20 -17 10 -21 23 -21 64 0 69 5 74 51 47z"/>
<path d="M9782 8652 l-43 -37 21 -25 c19 -22 21 -33 17 -125 -2 -55 -6 -109
-8 -120 -4 -18 1 -20 46 -20 44 0 50 2 47 20 -2 11 -4 92 -5 180 -2 184 -5
188 -75 127z"/>
<path d="M12216 8689 c-29 -34 -31 -42 -16 -70 22 -39 50 -21 59 40 7 40 22
49 45 26 43 -43 6 -149 -87 -251 -20 -23 -28 -40 -25 -60 3 -29 3 -29 88 -34
47 -3 91 -4 97 -2 18 6 37 82 24 95 -6 6 -15 4 -26 -7 -36 -35 -108 -35 -113
2 -2 12 1 22 6 22 19 0 104 84 123 122 24 48 19 81 -19 121 -22 23 -34 27 -78
27 -46 0 -55 -4 -78 -31z"/>
<path d="M12482 8698 c-33 -37 -44 -77 -44 -176 0 -107 16 -146 72 -174 31
-16 35 -16 63 0 80 46 99 260 31 342 -33 38 -89 42 -122 8z m78 -163 c0 -139
-7 -172 -31 -148 -15 15 -15 268 0 287 7 9 17 13 22 10 5 -3 9 -70 9 -149z"/>
<path d="M1124 7630 c-46 -18 -70 -85 -39 -110 24 -20 42 -4 49 45 6 40 10 46
29 43 20 -3 22 -10 25 -66 3 -70 2 -74 -75 -175 -31 -42 -43 -66 -41 -85 3
-26 5 -27 78 -30 103 -4 116 1 124 43 9 45 0 61 -22 42 -10 -9 -38 -18 -63
-22 -74 -11 -73 9 3 79 76 70 88 90 88 144 0 33 -6 45 -35 71 -37 32 -77 39
-121 21z"/>
<path d="M1356 7591 c-37 -38 -39 -41 -23 -59 13 -15 17 -39 17 -115 0 -52 -5
-108 -10 -123 -8 -21 -8 -29 2 -36 16 -10 70 -10 83 0 6 4 8 73 5 187 -6 206
-9 212 -74 146z"/>
<path d="M2302 7643 c-41 -8 -67 -88 -37 -113 21 -17 43 2 51 47 7 37 31 54
45 32 12 -18 11 -86 0 -127 -6 -18 -32 -59 -59 -90 -90 -105 -79 -133 49 -126
45 2 85 7 90 10 5 3 9 21 9 41 0 30 -3 34 -17 27 -27 -12 -116 -11 -120 2 -2
7 20 31 49 54 90 71 116 136 83 200 -24 46 -63 58 -143 43z"/>
<path d="M2550 7642 c-35 -11 -65 -65 -50 -92 16 -30 43 -21 54 20 11 39 23
51 44 43 11 -5 13 -21 10 -73 -3 -65 -6 -70 -67 -150 l-63 -82 21 -22 c18 -19
31 -22 96 -21 41 0 79 5 84 10 5 6 12 24 16 42 8 38 -9 52 -34 29 -20 -18 -96
-22 -107 -5 -4 7 11 27 37 48 96 79 121 122 105 185 -15 59 -77 88 -146 68z"/>
<path d="M3547 7629 c-46 -27 -52 -109 -8 -109 20 0 25 10 33 65 2 12 12 21
25 23 28 4 38 -30 29 -96 -6 -45 -38 -101 -91 -158 -26 -29 -38 -74 -23 -91
15 -18 165 -15 184 4 15 16 19 69 5 77 -5 3 -14 -1 -21 -9 -8 -10 -30 -15 -61
-15 -42 0 -49 3 -49 20 0 10 10 25 23 31 12 6 43 33 70 59 44 44 47 51 47 98
0 40 -6 57 -26 81 -22 27 -32 31 -72 31 -26 0 -55 -5 -65 -11z"/>
<path d="M3792 7633 c-24 -9 -44 -61 -32 -83 21 -40 50 -18 50 37 0 20 4 24
23 21 19 -3 22 -10 25 -55 3 -45 0 -53 -20 -64 -34 -18 -34 -18 -4 -43 24 -19
30 -32 33 -77 3 -39 0 -59 -11 -74 -16 -20 -16 -20 -36 4 -11 13 -20 34 -20
47 0 30 -30 32 -48 4 -11 -18 -10 -25 8 -48 25 -31 57 -51 83 -52 36 0 95 38
106 71 16 46 14 62 -14 103 -30 45 -31 57 -5 81 27 25 25 67 -6 104 -22 27
-32 31 -72 30 -26 0 -53 -3 -60 -6z"/>
<path d="M4813 7625 c-56 -24 -74 -100 -24 -100 20 0 26 8 35 40 8 29 17 40
31 40 40 0 39 -114 -1 -171 -11 -15 -24 -35 -30 -46 -6 -11 -24 -32 -39 -47
-19 -21 -26 -37 -23 -57 3 -29 4 -29 78 -32 106 -4 117 0 125 49 8 49 2 58
-24 35 -21 -19 -89 -30 -109 -17 -19 12 -5 36 40 68 110 76 132 195 43 238
-40 18 -60 18 -102 0z"/>
<path d="M5121 7590 c-23 -28 -41 -55 -41 -58 0 -4 -11 -20 -25 -36 -14 -16
-25 -35 -25 -41 0 -7 -7 -18 -16 -25 -8 -8 -14 -25 -12 -39 3 -23 8 -26 40
-26 22 0 44 -7 54 -17 15 -14 15 -21 5 -47 -7 -16 -10 -34 -6 -40 6 -11 92 -7
103 4 3 3 1 20 -5 36 -10 25 -9 35 3 54 14 21 14 26 1 47 -11 16 -15 53 -16
122 0 55 -5 104 -10 109 -5 5 -25 -11 -50 -43z m-11 -145 c0 -41 -27 -62 -54
-42 -16 11 -16 15 -1 45 23 45 55 44 55 -3z"/>
<path d="M6019 7581 c-32 -32 -37 -62 -14 -81 24 -20 42 -5 49 40 6 35 10 41
29 38 20 -3 22 -10 25 -65 3 -59 0 -66 -36 -120 -22 -32 -49 -67 -61 -77 -26
-23 -29 -81 -5 -90 9 -3 49 -6 89 -6 65 0 76 3 89 22 18 25 21 74 7 83 -6 3
-15 -4 -21 -15 -8 -16 -21 -20 -59 -20 -77 0 -77 19 0 75 79 59 105 121 79
189 -12 31 -58 56 -105 56 -27 0 -44 -8 -66 -29z"/>
<path d="M6270 7591 c-11 -22 -14 -164 -3 -174 3 -4 17 3 30 15 21 20 25 20
39 6 20 -20 30 -127 15 -156 -6 -12 -20 -22 -31 -22 -15 0 -19 8 -22 38 -3 32
-6 37 -28 37 -21 0 -26 -5 -28 -31 -2 -25 3 -37 28 -58 37 -30 67 -33 109 -9
42 24 65 80 58 139 -6 60 -40 95 -99 103 -38 5 -43 9 -46 33 -4 29 7 35 78 40
30 3 35 7 38 31 l3 27 -65 0 c-54 0 -67 -3 -76 -19z"/>
<path d="M7288 7613 c-60 -9 -94 -108 -38 -108 17 0 26 6 28 20 9 59 13 66 35
63 19 -3 22 -10 25 -60 3 -59 -15 -109 -55 -153 -43 -49 -64 -87 -61 -113 3
-27 4 -27 88 -29 98 -2 118 9 118 63 0 38 -4 41 -27 20 -9 -7 -37 -16 -63 -19
-75 -10 -75 14 0 77 102 85 120 150 58 212 -34 34 -45 36 -108 27z"/>
<path d="M7526 7589 c-38 -30 -57 -83 -61 -167 -5 -95 18 -154 70 -179 32 -15
38 -15 68 -1 47 23 72 77 70 152 -2 74 -25 110 -74 114 -19 2 -38 7 -43 12
-12 12 18 57 44 65 31 10 23 25 -14 25 -19 0 -45 -9 -60 -21z m59 -138 c3 -5
7 -42 9 -81 2 -54 -1 -75 -12 -87 -27 -26 -37 5 -34 95 3 61 7 82 17 82 8 0
16 -4 20 -9z"/>
<path d="M8518 7619 c-34 -18 -38 -23 -38 -60 0 -28 5 -42 16 -46 21 -8 44 21
44 54 0 31 29 42 46 18 32 -43 4 -133 -68 -218 -27 -32 -41 -59 -42 -80 l-1
-32 90 -3 c99 -3 115 5 115 60 0 32 -8 34 -36 13 -22 -16 -100 -20 -109 -5 -3
6 24 38 60 73 84 79 102 124 74 179 -31 60 -90 79 -151 47z"/>
<path d="M8732 7618 c-7 -7 -12 -25 -12 -41 0 -26 3 -28 23 -22 12 4 39 9 59
12 53 7 57 -13 20 -96 -17 -37 -35 -93 -41 -125 -6 -31 -13 -62 -17 -68 -10
-15 16 -28 58 -28 43 0 52 9 38 44 -14 37 5 169 35 246 14 35 25 70 25 77 0
17 -171 18 -188 1z"/>
<path d="M9766 7625 c-53 -28 -73 -79 -41 -105 21 -17 45 -5 45 23 0 33 23 62
44 54 12 -5 16 -20 16 -65 0 -62 -27 -118 -90 -185 -21 -22 -30 -42 -30 -64
l0 -33 88 0 c48 0 92 4 98 8 6 4 14 22 17 41 7 31 6 33 -16 26 -41 -14 -109
-17 -120 -6 -7 7 9 30 60 78 56 55 71 76 76 107 9 54 -12 99 -56 119 -43 21
-54 21 -91 2z"/>
<path d="M10036 7630 c-67 -13 -103 -79 -73 -133 18 -31 23 -77 8 -77 -10 0
-31 -54 -31 -81 0 -10 14 -34 31 -54 27 -31 37 -35 78 -35 97 1 142 97 89 190
-21 36 -21 40 -6 57 9 10 20 30 23 45 6 23 1 34 -28 63 -19 19 -39 34 -43 34
-5 -1 -27 -5 -48 -9z m54 -41 c13 -23 13 -76 0 -84 -17 -11 -44 4 -62 32 -15
26 -15 29 3 55 21 29 43 28 59 -3z m5 -243 c12 -35 -3 -60 -41 -64 -36 -5 -54
19 -54 73 0 58 16 71 54 41 17 -13 35 -35 41 -50z"/>
<path d="M10979 7611 c-32 -32 -37 -62 -14 -81 22 -18 37 -8 50 36 8 28 16 39
30 39 17 0 20 -8 23 -61 3 -64 3 -64 -104 -213 -27 -38 -27 -40 -14 -61 7 -11
30 -15 94 -16 47 0 89 2 94 5 5 3 12 23 16 43 8 43 -7 58 -33 34 -24 -22 -101
-22 -101 0 0 8 29 43 65 77 l65 62 0 58 c0 77 -27 107 -95 107 -38 0 -52 -5
-76 -29z"/>
<path d="M11233 7618 c-30 -34 -50 -146 -33 -188 19 -47 37 -60 81 -60 29 0
39 -4 39 -16 0 -22 -58 -74 -82 -74 -28 0 -17 -24 13 -29 41 -6 107 39 132 89
26 55 35 175 16 223 -22 58 -47 77 -99 77 -35 0 -51 -5 -67 -22z m97 -115 c0
-78 -13 -99 -46 -72 -21 18 -16 155 6 169 26 16 40 -18 40 -97z"/>
<path d="M12264 7653 c-56 -11 -86 -94 -36 -101 22 -3 25 1 37 52 6 27 7 28
25 11 28 -25 26 -77 -4 -112 l-24 -28 23 -21 c27 -25 43 -108 24 -130 -19 -23
-49 -18 -49 9 0 33 -23 62 -44 54 -26 -10 -21 -73 7 -91 63 -41 131 -27 166
35 27 47 23 76 -14 110 -30 29 -31 42 -4 79 25 33 21 86 -9 114 -20 17 -65 27
-98 19z"/>
<path d="M12499 7645 c-45 -24 -63 -78 -61 -183 1 -77 5 -100 24 -135 28 -50
63 -66 107 -48 48 20 72 82 73 183 0 94 -17 144 -58 177 -31 24 -49 26 -85 6z
m56 -186 c0 -121 -2 -144 -15 -144 -12 0 -15 23 -18 134 -3 142 0 165 21 158
9 -3 12 -41 12 -148z"/>
<path d="M1104 6545 c-31 -31 -31 -80 1 -80 14 0 21 8 23 27 8 65 62 56 62
-11 0 -42 -7 -54 -39 -71 l-24 -12 32 -25 c29 -23 31 -29 31 -84 0 -44 -4 -61
-15 -65 -22 -9 -43 13 -47 49 -4 41 -33 49 -49 14 -28 -61 53 -122 123 -92 46
19 69 47 75 93 5 34 1 43 -26 71 -32 33 -32 40 2 78 29 33 25 72 -12 105 -42
38 -101 39 -137 3z"/>
<path d="M1361 6530 c-45 -46 -48 -52 -26 -70 19 -16 21 -200 3 -230 -17 -28
3 -41 57 -38 l40 3 -4 80 c-3 44 -5 127 -5 184 -1 70 -5 105 -13 108 -6 2 -30
-15 -52 -37z"/>
<path d="M2301 6565 c-42 -23 -55 -71 -26 -95 20 -16 45 3 42 32 -3 27 30 49
43 28 21 -32 11 -80 -22 -110 l-32 -29 26 -10 c41 -15 56 -108 25 -148 -16
-21 -47 3 -47 36 0 41 -22 56 -45 32 -22 -25 -10 -67 26 -92 19 -14 34 -16 72
-10 59 10 87 36 94 88 4 32 0 44 -21 70 -31 37 -32 47 -6 80 61 78 -40 177
-129 128z"/>
<path d="M2547 6566 c-16 -7 -33 -19 -38 -27 -23 -37 2 -104 29 -77 7 7 12 22
12 33 0 12 8 29 18 38 27 25 42 3 42 -61 0 -58 -12 -84 -82 -178 -41 -55 -48
-90 -20 -98 22 -7 142 -7 164 0 19 6 35 61 21 75 -6 6 -22 3 -41 -6 -34 -18
-102 -12 -102 9 0 6 12 20 27 31 97 71 131 125 119 189 -12 65 -87 101 -149
72z"/>
<path d="M3558 6573 c-35 -22 -51 -58 -37 -84 14 -28 43 -20 47 13 2 15 10 32
18 39 22 18 36 -2 36 -52 -1 -33 -7 -48 -28 -67 l-26 -25 23 -12 c28 -16 37
-38 38 -90 1 -48 -10 -68 -35 -63 -13 2 -21 14 -24 38 -4 29 -9 35 -30 35 -34
0 -39 -41 -10 -78 18 -23 29 -27 71 -27 42 0 55 5 80 29 38 39 40 96 4 139
-30 36 -31 44 -5 67 43 39 17 122 -47 146 -33 12 -44 11 -75 -8z"/>
<path d="M3808 6574 c-46 -19 -70 -67 -45 -91 23 -23 47 -9 47 27 0 33 24 50
43 31 6 -6 12 -30 12 -52 0 -33 -6 -46 -29 -64 -28 -23 -28 -45 0 -45 18 0 34
-40 34 -85 0 -49 -9 -65 -36 -65 -19 0 -24 5 -24 24 0 37 -10 56 -30 56 -36 0
-40 -51 -5 -85 36 -37 111 -36 147 3 14 15 28 39 32 53 7 32 -10 85 -30 93
-20 8 -17 31 8 75 20 34 20 41 8 71 -12 30 -62 71 -85 69 -5 0 -26 -7 -47 -15z"/>
<path d="M4800 6583 c-51 -19 -81 -93 -44 -107 21 -8 34 1 34 24 0 31 11 50
30 50 38 0 41 -76 5 -110 -25 -23 -33 -50 -16 -50 26 0 41 -34 41 -90 0 -51
-3 -60 -21 -65 -26 -9 -31 -4 -38 42 -7 42 -22 51 -45 28 -23 -24 -20 -43 13
-76 40 -39 94 -40 139 -1 47 39 54 90 18 136 -31 42 -32 50 -6 83 11 14 20 34
20 44 0 65 -70 114 -130 92z"/>
<path d="M5103 6563 c-10 -15 -21 -32 -25 -38 -23 -30 -78 -118 -78 -125 0 -4
-7 -13 -15 -20 -8 -7 -15 -25 -15 -41 0 -27 3 -29 39 -29 48 0 61 -15 58 -66
l-2 -39 48 2 c27 1 51 3 53 6 3 2 0 16 -6 31 -8 21 -6 34 6 57 14 28 14 33 0
48 -11 12 -16 45 -18 126 -3 117 -13 137 -45 88z m-30 -186 c-7 -34 -29 -45
-49 -25 -12 11 -12 18 -2 41 24 49 61 38 51 -16z"/>
<path d="M6026 6529 c-21 -16 -26 -28 -24 -53 2 -20 9 -32 21 -34 17 -4 21 2
31 51 12 54 56 21 56 -43 0 -21 -9 -39 -27 -56 l-27 -25 28 -22 c25 -20 27
-27 24 -82 -3 -57 -4 -60 -28 -60 -21 0 -26 5 -28 33 -4 39 -29 53 -48 27 -20
-27 -17 -43 11 -70 19 -20 34 -25 74 -25 42 0 54 5 80 31 40 40 42 88 5 136
-26 35 -26 61 1 83 27 23 14 88 -24 117 -26 20 -95 16 -125 -8z"/>
<path d="M6272 6538 c-14 -14 -17 -174 -3 -182 5 -3 14 1 21 9 14 17 46 20 54
6 12 -18 18 -100 12 -135 -6 -30 -11 -36 -31 -36 -21 0 -25 5 -25 28 0 16 -6
36 -13 46 -13 17 -14 17 -30 1 -21 -21 -22 -49 -1 -80 14 -21 24 -25 66 -25
44 0 54 4 85 35 34 34 35 38 31 96 -6 78 -35 112 -100 113 -39 1 -43 3 -46 28
-3 22 2 30 23 38 14 5 39 10 54 10 33 0 54 20 45 44 -5 12 -20 16 -68 16 -35
0 -67 -5 -74 -12z"/>
<path d="M7258 6539 c-33 -30 -42 -60 -24 -84 21 -29 46 -12 46 30 0 23 6 38
15 41 49 19 63 -78 18 -120 l-27 -25 27 -25 c23 -21 27 -33 27 -80 0 -46 -4
-57 -21 -66 -26 -14 -31 -10 -38 37 -5 29 -11 39 -28 41 -33 5 -41 -39 -14
-77 56 -78 191 -29 191 69 0 26 -7 43 -25 60 -30 28 -32 61 -5 85 49 44 6 123
-71 132 -38 4 -50 1 -71 -18z"/>
<path d="M7555 6546 c-41 -18 -60 -42 -80 -101 -28 -86 -5 -219 45 -255 38
-27 70 -25 108 8 25 21 34 39 42 80 18 100 -14 172 -77 172 -64 0 -48 50 25
80 13 6 20 14 17 20 -8 14 -44 12 -80 -4z m33 -231 c2 -81 -6 -113 -27 -101
-7 5 -11 42 -11 97 0 81 2 90 18 87 14 -3 17 -16 20 -83z"/>
<path d="M8506 6549 c-30 -23 -36 -76 -11 -85 21 -8 45 14 45 42 0 27 12 37
34 28 11 -4 16 -19 16 -49 0 -37 -5 -48 -32 -70 -21 -17 -28 -29 -21 -32 36
-14 55 -41 60 -84 4 -35 1 -50 -12 -63 -24 -23 -38 -16 -48 27 -9 36 -33 55
-49 39 -5 -5 -8 -27 -6 -48 3 -34 8 -41 41 -57 48 -22 94 -10 132 34 34 41 33
88 -2 130 l-27 32 22 38 c29 51 28 75 -7 110 -37 36 -94 40 -135 8z"/>
<path d="M8732 6558 c-12 -12 -17 -60 -6 -70 3 -4 17 0 32 8 36 18 81 18 89
-1 3 -9 -8 -46 -25 -83 -17 -38 -33 -90 -37 -118 -4 -27 -11 -56 -16 -65 -12
-23 9 -39 52 -39 47 0 53 9 39 59 -12 46 5 151 40 245 18 48 20 60 9 67 -21
13 -163 11 -177 -3z"/>
<path d="M9746 6549 c-29 -23 -34 -60 -11 -79 19 -16 32 -5 37 30 2 19 9 25
28 25 22 0 25 -5 28 -38 3 -31 -2 -43 -27 -66 l-30 -28 30 -22 c26 -20 29 -27
29 -82 0 -60 0 -60 -27 -57 -22 2 -29 9 -33 33 -6 37 -45 48 -55 16 -8 -26 22
-78 49 -85 54 -15 88 -6 122 30 47 49 45 70 -17 155 -10 13 -7 22 11 47 31 42
29 90 -5 120 -34 29 -93 30 -129 1z"/>
<path d="M9979 6541 c-32 -33 -36 -62 -14 -105 19 -35 19 -70 1 -85 -22 -19
-28 -70 -11 -105 34 -71 144 -78 184 -12 27 42 27 99 1 141 l-21 33 22 45 c21
44 22 47 5 72 -35 53 -121 62 -167 16z m109 -10 c21 -13 12 -85 -11 -89 -26
-5 -57 26 -57 59 0 35 36 51 68 30z m-18 -211 c51 -47 30 -112 -32 -97 -40 10
-52 52 -32 115 6 20 30 14 64 -18z"/>
<path d="M11006 6561 c-56 -12 -85 -88 -40 -105 24 -9 34 2 34 35 0 18 6 32
16 36 20 7 30 -4 38 -46 5 -28 1 -37 -24 -61 l-30 -28 26 -20 c22 -16 28 -28
31 -73 5 -64 -7 -90 -34 -73 -10 6 -19 23 -21 37 -4 31 -30 43 -50 23 -33 -32
25 -106 84 -106 37 0 82 30 99 66 20 43 14 78 -23 117 -22 23 -24 31 -14 45
36 51 42 70 31 101 -6 18 -24 38 -40 46 -30 16 -37 16 -83 6z"/>
<path d="M11251 6561 c-41 -11 -63 -52 -68 -128 -4 -60 -2 -72 19 -103 18 -26
31 -35 54 -36 16 0 35 -4 42 -8 19 -12 -7 -54 -39 -61 -31 -7 -54 -29 -45 -44
9 -15 97 16 127 45 43 41 51 73 47 183 -3 92 -5 103 -28 125 -28 27 -72 38
-109 27z m57 -120 c3 -80 -8 -118 -29 -105 -5 3 -9 48 -9 100 0 86 2 95 18 92
14 -3 17 -17 20 -87z"/>
<path d="M12298 6531 c-21 -32 -38 -63 -38 -69 0 -6 -3 -12 -7 -14 -15 -6 -52
-66 -59 -93 -8 -30 10 -48 38 -39 35 11 58 -13 58 -62 l0 -45 48 3 47 3 -3 43
c-2 23 1 49 8 57 9 10 8 19 -5 39 -14 20 -16 45 -13 128 3 97 2 103 -17 105
-15 2 -30 -13 -57 -56z m2 -137 c0 -28 -13 -44 -36 -44 -35 0 -39 23 -13 60
22 29 25 30 36 14 7 -10 13 -23 13 -30z"/>
<path d="M12498 6580 c-50 -30 -75 -137 -57 -248 12 -75 23 -96 65 -118 30
-16 33 -16 65 2 43 25 65 71 73 152 15 149 -62 261 -146 212z m62 -174 c0
-142 -7 -173 -32 -148 -12 12 -14 264 -3 282 3 5 13 10 21 10 11 0 14 -25 14
-144z"/>
<path d="M1163 5462 c-40 -52 -113 -165 -125 -194 -9 -23 16 -48 41 -41 10 3
28 0 40 -7 17 -9 21 -19 19 -53 l-3 -42 44 -3 c48 -4 73 10 53 30 -15 15 -15
43 0 67 9 15 9 25 0 46 -7 15 -12 71 -12 130 0 57 -4 106 -10 110 -5 3 -26
-16 -47 -43z m-25 -150 c2 -11 -2 -30 -8 -42 -9 -16 -15 -18 -30 -10 -24 13
-25 23 -4 56 19 29 38 27 42 -4z"/>
<path d="M1325 5454 l-49 -46 23 -17 c22 -17 23 -22 18 -122 -3 -57 -6 -113
-8 -124 -4 -18 1 -20 46 -20 47 0 50 1 48 25 -2 14 -4 97 -5 184 -2 102 -7
161 -14 163 -6 2 -32 -17 -59 -43z"/>
<path d="M2543 5494 c-38 -19 -58 -66 -42 -96 15 -28 42 -18 50 18 11 58 36
72 58 32 21 -41 -3 -124 -55 -191 -94 -122 -89 -139 38 -135 l92 3 10 33 c12
43 -5 63 -32 39 -18 -17 -92 -24 -105 -11 -9 10 13 37 63 79 73 60 96 119 68
179 -23 52 -93 76 -145 50z"/>
<path d="M2316 5379 c-87 -133 -90 -154 -25 -154 51 -1 61 -11 57 -58 l-3 -42
50 0 c44 0 50 2 47 20 -1 11 -2 29 -2 40 1 70 -9 287 -14 301 -12 31 -34 9
-110 -107z m44 -68 c0 -16 -10 -37 -24 -50 l-24 -23 -8 24 c-11 32 -6 48 19
69 27 21 37 16 37 -20z"/>
<path d="M3804 5506 c-35 -16 -58 -62 -42 -89 14 -26 37 -20 44 11 10 48 13
52 34 52 18 0 20 -6 20 -55 0 -44 -4 -56 -20 -65 -26 -14 -25 -28 1 -49 28
-22 38 -107 16 -136 -13 -16 -17 -17 -31 -6 -9 7 -16 23 -16 35 0 11 -5 28
-10 36 -13 21 -44 1 -48 -32 -4 -33 48 -78 89 -78 37 0 85 24 99 49 17 33 12
96 -10 124 -11 14 -20 30 -20 37 0 7 9 23 20 37 24 31 25 54 5 94 -25 47 -74
60 -131 35z"/>
<path d="M3638 5493 c-9 -10 -31 -45 -49 -78 -18 -33 -46 -77 -62 -97 -38 -50
-33 -72 18 -76 55 -5 68 -17 60 -63 -6 -37 -6 -38 30 -45 48 -9 73 12 55 46
-9 17 -8 26 6 47 15 25 15 28 -1 55 -14 24 -16 48 -13 126 2 82 1 97 -13 100
-8 1 -22 -5 -31 -15z m-26 -160 c2 -10 0 -28 -6 -41 -13 -31 -50 -26 -54 7 -6
40 52 71 60 34z"/>
<path d="M4824 5420 c-27 -44 -54 -90 -60 -101 -7 -11 -17 -26 -23 -32 -32
-32 2 -77 48 -62 27 8 44 -19 37 -59 -7 -38 3 -46 61 -46 l36 0 -7 41 c-4 28
-2 46 9 61 13 19 13 24 0 38 -10 11 -15 47 -17 125 -4 143 -16 148 -84 35z m1
-120 c0 -28 -4 -36 -21 -38 -11 -2 -26 4 -33 12 -11 13 -10 18 3 31 9 9 16 21
16 26 0 6 8 9 18 7 12 -2 17 -13 17 -38z"/>
<path d="M5108 5483 c-20 -24 -88 -127 -122 -184 -25 -44 -26 -48 -10 -63 11
-12 25 -15 44 -11 36 8 53 -14 48 -62 l-3 -38 53 -3 c56 -3 64 7 42 49 -8 14
-6 25 6 44 15 23 15 27 -1 51 -13 20 -16 46 -15 117 1 51 1 98 1 105 -1 18
-25 15 -43 -5z m-40 -180 c-2 -31 -7 -39 -26 -41 -30 -4 -38 20 -17 52 26 40
47 34 43 -11z"/>
<path d="M7570 5494 c-52 -23 -79 -52 -95 -108 -18 -59 -19 -98 -4 -167 14
-64 48 -99 96 -99 74 0 105 45 105 152 0 83 -21 115 -81 120 -51 4 -49 34 7
71 61 41 43 62 -28 31z m18 -238 c3 -75 -8 -113 -29 -100 -10 6 -12 167 -2
178 18 18 28 -7 31 -78z"/>
<path d="M7333 5458 c-14 -24 -45 -72 -68 -108 -67 -104 -66 -116 6 -128 l44
-8 0 -44 0 -45 50 0 c45 0 50 2 46 20 -3 11 -4 32 -3 48 2 35 2 47 -4 190 -5
107 -7 117 -24 117 -12 0 -30 -17 -47 -42z m-17 -133 c11 -27 -5 -65 -27 -65
-28 0 -34 24 -14 54 20 29 33 33 41 11z"/>
<path d="M8743 5500 c-18 -7 -23 -17 -23 -45 0 -34 20 -49 35 -25 8 13 82 13
90 -1 4 -6 -5 -37 -19 -70 -25 -54 -55 -170 -56 -210 0 -19 67 -36 82 -21 5 5
11 56 13 113 2 95 24 192 48 216 13 13 7 42 -10 46 -31 9 -137 6 -160 -3z"/>
<path d="M8579 5448 c-48 -75 -58 -91 -65 -110 -3 -10 -9 -18 -13 -18 -4 0
-15 -15 -24 -34 -14 -30 -14 -36 -2 -46 8 -7 25 -10 37 -7 38 10 58 -9 58 -58
0 -24 4 -46 8 -49 5 -3 25 -3 45 1 35 5 37 7 37 45 0 22 5 48 11 59 8 16 7 25
-5 38 -13 14 -16 41 -16 124 0 98 -2 107 -19 107 -12 0 -31 -19 -52 -52z m-5
-113 c8 -21 -9 -61 -29 -69 -39 -15 -47 25 -13 61 25 27 34 29 42 8z"/>
<path d="M6330 5482 c-30 -2 -58 -9 -62 -15 -11 -17 -10 -165 1 -171 5 -3 14
1 21 9 19 23 45 18 58 -10 17 -36 15 -127 -2 -150 -14 -19 -15 -19 -35 -1 -12
11 -20 24 -18 30 3 6 0 19 -5 29 -7 14 -13 15 -28 7 -27 -15 -25 -52 5 -84 36
-39 92 -37 139 8 32 30 36 39 36 85 0 87 -33 127 -110 133 -32 3 -35 6 -35 33
0 29 2 30 55 35 53 5 55 6 55 34 0 33 0 33 -75 28z"/>
<path d="M6091 5416 c-22 -35 -41 -68 -41 -74 0 -5 -7 -12 -15 -16 -8 -3 -15
-12 -15 -19 0 -8 -7 -20 -15 -27 -8 -7 -15 -25 -15 -41 0 -27 3 -29 39 -29 50
0 63 -17 55 -68 l-6 -40 51 0 c58 0 69 10 51 43 -13 24 -11 35 12 68 11 15 10
20 -4 28 -16 9 -18 26 -18 124 0 105 -2 115 -19 115 -12 0 -33 -23 -60 -64z
m-3 -135 c-2 -29 -7 -37 -27 -39 -38 -6 -46 12 -22 52 28 45 53 39 49 -13z"/>
<path d="M10003 5500 c-33 -13 -55 -64 -47 -105 3 -20 10 -38 15 -41 15 -9 10
-41 -12 -79 -19 -32 -20 -41 -10 -75 21 -70 86 -99 150 -66 62 32 79 109 39
174 l-21 35 23 41 c20 37 21 46 10 66 -29 54 -88 74 -147 50z m91 -36 c12 -31
6 -84 -10 -91 -15 -6 -74 42 -74 61 0 36 72 62 84 30z m-29 -205 c40 -35 45
-67 15 -94 -25 -23 -65 -13 -74 17 -10 37 -7 83 6 96 15 15 12 17 53 -19z"/>
<path d="M9813 5439 c-21 -33 -53 -83 -71 -111 -41 -64 -40 -93 5 -94 49 -2
65 -20 58 -65 -6 -35 -4 -39 19 -45 14 -3 38 -3 52 0 24 6 25 10 19 47 -5 26
-3 45 6 55 9 11 9 20 0 40 -6 14 -11 72 -11 129 0 98 -1 105 -20 105 -14 0
-32 -19 -57 -61z m-3 -128 c0 -33 -20 -54 -44 -45 -19 7 -20 15 -4 49 16 36
48 34 48 -4z"/>
<path d="M11260 5487 c-30 -14 -69 -90 -70 -133 0 -38 18 -93 38 -116 9 -12
29 -18 54 -18 30 0 38 -4 38 -18 0 -24 -27 -47 -62 -56 -29 -7 -38 -31 -15
-39 19 -6 89 21 114 45 46 43 66 175 40 262 -19 61 -87 98 -137 73z m65 -131
c0 -88 -6 -104 -34 -87 -9 6 -13 30 -13 82 0 105 -1 101 25 97 21 -3 22 -7 22
-92z"/>
<path d="M11021 5375 c-87 -141 -90 -161 -21 -157 34 2 51 -19 48 -56 -3 -36
-2 -37 36 -40 57 -5 68 2 54 33 -9 19 -8 31 2 49 8 16 9 31 4 43 -4 10 -11 67
-14 128 -7 150 -17 150 -109 0z m37 -72 c2 -12 -6 -31 -19 -44 -21 -21 -23
-21 -36 -4 -17 25 -17 40 3 60 22 21 48 15 52 -12z"/>
<path d="M12288 5523 c-38 -3 -58 -9 -62 -19 -9 -25 -19 -174 -11 -174 4 0 20
8 37 18 28 16 30 16 44 -2 8 -11 14 -32 14 -47 0 -14 3 -40 6 -56 8 -40 -26
-84 -50 -64 -9 7 -16 26 -16 41 0 35 -29 49 -47 24 -19 -25 -16 -39 12 -73 42
-49 128 -37 163 23 28 48 32 76 16 115 -24 57 -52 81 -95 81 -50 0 -69 8 -69
31 0 23 36 39 90 39 29 0 42 5 50 19 11 22 3 52 -14 49 -6 -1 -36 -3 -68 -5z"/>
<path d="M12502 5517 c-44 -21 -62 -75 -62 -190 0 -92 3 -108 23 -138 12 -18
36 -37 52 -42 78 -22 127 50 127 184 -1 98 -14 140 -53 174 -33 27 -51 30 -87
12z m56 -188 c-3 -120 -5 -144 -18 -144 -22 0 -33 249 -12 284 25 42 33 8 30
-140z"/>
<path d="M1110 4432 c-6 -2 -10 -20 -10 -40 -1 -20 -5 -56 -9 -79 -6 -30 -5
-48 4 -59 11 -16 14 -15 33 4 18 18 22 19 41 6 18 -13 21 -25 21 -89 0 -65 -3
-76 -21 -85 -26 -14 -31 -10 -38 37 -7 42 -19 49 -46 29 -16 -12 -18 -19 -10
-42 16 -44 55 -67 100 -58 57 10 96 50 102 105 9 82 -37 143 -107 141 -33 -1
-50 20 -43 49 4 15 15 19 53 19 51 0 74 16 68 47 -3 14 -14 17 -66 18 -34 0
-67 -1 -72 -3z"/>
<path d="M1358 4395 c-41 -38 -46 -56 -23 -75 11 -9 15 -35 15 -107 0 -52 -4
-102 -9 -112 -16 -29 2 -43 49 -39 l44 3 -3 175 c-1 96 -5 178 -7 182 -10 15
-29 7 -66 -27z"/>
<path d="M3558 4452 c-10 -2 -18 -4 -19 -5 -1 -1 -3 -44 -5 -94 -4 -90 0 -105
23 -82 6 6 21 9 34 7 20 -2 26 -11 33 -51 12 -63 -2 -122 -29 -122 -13 0 -21
9 -25 31 -10 47 -18 56 -41 44 -43 -23 -11 -95 46 -106 100 -18 167 91 118
193 -17 38 -46 53 -98 53 -37 0 -51 20 -35 50 8 14 24 20 63 22 50 3 52 4 52
33 0 29 -1 30 -50 30 -27 0 -58 -1 -67 -3z"/>
<path d="M3788 4438 c-24 -21 -32 -46 -29 -86 1 -8 10 -12 24 -10 17 2 23 11
25 38 4 37 17 51 39 43 8 -3 13 -23 13 -58 0 -46 -4 -56 -27 -75 -16 -12 -23
-23 -17 -26 35 -15 47 -34 51 -80 8 -87 -47 -119 -61 -35 -7 47 -30 55 -47 17
-8 -18 -7 -30 5 -54 13 -25 24 -32 62 -38 58 -8 91 9 117 60 16 30 17 41 7 72
-7 19 -18 38 -26 41 -20 8 -17 40 7 72 24 32 20 70 -10 110 -27 35 -97 40
-133 9z"/>
<path d="M4772 4408 c-6 -6 -12 -27 -12 -46 0 -29 3 -33 18 -27 9 4 42 12 72
19 49 10 55 14 55 36 0 24 -3 25 -60 28 -38 2 -65 -2 -73 -10z"/>
<path d="M5097 4388 c-13 -18 -34 -51 -48 -73 -13 -22 -29 -46 -36 -53 -7 -7
-13 -19 -13 -26 0 -8 -7 -19 -16 -26 -24 -21 -14 -64 16 -68 71 -8 73 -9 65
-57 l-6 -45 55 0 c59 0 62 3 46 46 -8 19 -8 30 0 38 13 13 13 53 0 61 -6 4
-10 55 -10 121 0 127 -9 141 -53 82z m-27 -143 c14 -16 6 -47 -16 -66 -14 -11
-18 -10 -30 5 -11 16 -11 23 2 47 16 33 26 36 44 14z"/>
<path d="M4761 4297 c-21 -53 -8 -78 29 -55 15 10 25 10 38 2 14 -9 17 -26 17
-90 0 -78 0 -79 -25 -79 -20 0 -26 6 -28 27 -4 36 -27 55 -47 38 -21 -17 -19
-43 6 -74 17 -22 28 -26 70 -26 59 0 91 25 110 88 14 49 7 81 -27 121 -21 26
-33 31 -68 31 -35 0 -45 4 -53 23 -11 22 -11 22 -22 -6z"/>
<path d="M12276 4438 c-55 -31 -78 -75 -84 -158 -7 -97 12 -167 52 -191 47
-29 89 -25 120 11 27 33 46 87 46 133 0 38 -36 107 -58 108 -9 1 -24 3 -32 4
-8 1 -21 3 -27 4 -35 4 12 69 58 81 31 8 27 25 -6 28 -17 1 -47 -8 -69 -20z
m42 -228 c3 -86 -6 -112 -31 -91 -16 13 -18 145 -3 169 19 31 31 2 34 -78z"/>
<path d="M12495 4442 c-11 -9 -26 -25 -34 -35 -19 -24 -31 -171 -19 -230 11
-54 57 -107 93 -107 65 0 124 111 111 208 -15 107 -28 141 -64 162 -40 24 -61
25 -87 2z m65 -177 c0 -134 -7 -171 -28 -150 -4 4 -10 64 -13 133 -4 98 -2
132 8 150 8 12 18 20 23 17 6 -4 10 -69 10 -150z"/>
<path d="M2284 4418 c-14 -23 -18 -175 -4 -183 8 -5 16 -1 22 9 11 19 39 21
56 4 7 -7 12 -40 12 -78 0 -104 -37 -134 -60 -49 -9 33 -15 40 -33 37 -56 -8
-16 -102 48 -114 37 -7 97 22 114 54 22 43 22 93 1 138 -22 45 -33 51 -100 56
-32 3 -35 6 -35 33 0 29 2 30 52 35 58 6 77 18 71 46 -3 16 -14 19 -70 22 -45
2 -69 -1 -74 -10z"/>
<path d="M2529 4407 c-43 -35 -48 -97 -9 -97 22 0 31 12 40 54 4 22 12 31 25
31 18 0 20 -7 20 -70 0 -73 -11 -96 -92 -198 -30 -38 -30 -75 0 -82 12 -3 56
-5 97 -3 l74 3 9 34 c9 38 -3 61 -25 44 -12 -11 -52 -16 -90 -14 -27 2 -22 28
9 54 76 61 101 93 108 135 9 54 -6 92 -44 115 -41 24 -91 21 -122 -6z"/>
<path d="M6057 4422 c-36 -5 -58 -50 -38 -81 7 -11 13 -10 33 3 13 8 41 15 62
14 41 -1 58 14 54 47 -3 16 -11 20 -43 21 -22 0 -53 -2 -68 -4z"/>
<path d="M6330 4423 c-30 -3 -58 -10 -62 -16 -4 -7 -8 -49 -8 -94 0 -67 3 -83
15 -83 8 0 15 5 15 11 0 6 12 9 27 7 31 -3 40 -26 42 -99 2 -81 -50 -110 -65
-34 -7 41 -19 51 -39 35 -23 -19 -18 -58 10 -85 38 -39 97 -35 141 9 30 30 34
40 34 86 0 85 -51 142 -114 126 -25 -6 -36 7 -36 44 0 22 19 30 70 30 45 0 71
29 49 56 -6 8 -14 13 -18 12 -3 -1 -31 -3 -61 -5z"/>
<path d="M6014 4307 c-10 -28 0 -72 16 -68 49 13 63 13 71 0 11 -18 11 -140 0
-157 -15 -25 -46 -9 -49 25 -4 42 -25 59 -46 38 -41 -42 5 -105 77 -105 77 0
129 76 113 163 -9 46 -45 77 -98 84 -23 3 -51 12 -60 21 -16 13 -18 13 -24 -1z"/>
<path d="M7320 4442 c-30 -2 -59 -7 -64 -12 -5 -5 -10 -33 -11 -62 -1 -29 -6
-65 -10 -80 -9 -36 17 -48 46 -22 20 18 21 18 40 -5 24 -30 27 -142 4 -161
-23 -19 -43 -5 -47 32 -5 53 -57 49 -58 -5 0 -10 11 -29 25 -42 55 -56 156
-16 175 70 20 89 -23 148 -115 157 -20 2 -31 9 -33 22 -6 28 13 40 71 46 50 5
52 6 52 34 0 33 0 33 -75 28z"/>
<path d="M7568 4436 c-66 -29 -91 -73 -102 -176 -6 -56 12 -148 34 -175 15
-18 63 -28 100 -20 54 12 89 106 70 189 -11 49 -37 75 -79 81 -18 2 -35 6 -38
9 -10 9 19 46 47 61 58 30 29 58 -32 31z m20 -243 c-3 -74 -6 -88 -20 -91 -16
-3 -18 6 -18 87 0 85 1 91 20 91 20 0 21 -5 18 -87z"/>
<path d="M8510 4435 c-4 -5 -11 -49 -15 -97 -6 -75 -5 -88 8 -88 8 0 20 7 27
15 31 38 54 10 64 -77 5 -50 3 -61 -15 -79 -16 -16 -23 -18 -35 -8 -8 6 -14
21 -14 33 0 22 -17 46 -32 46 -18 0 -27 -39 -17 -68 19 -54 106 -64 156 -19
75 68 36 217 -56 217 -25 0 -44 7 -56 20 -18 20 -18 21 1 35 10 8 38 15 60 15
45 0 68 18 62 47 -3 15 -14 18 -67 18 -34 0 -66 -4 -71 -10z"/>
<path d="M8727 4433 c-14 -13 -7 -73 7 -73 8 0 18 5 21 10 10 16 85 12 91 -4
3 -8 -6 -40 -21 -71 -14 -31 -30 -78 -36 -103 -6 -26 -14 -61 -19 -79 -4 -18
-5 -34 -2 -37 9 -9 90 -7 96 3 3 4 1 22 -4 39 -11 42 11 182 39 245 34 77 34
77 -72 77 -52 0 -97 -3 -100 -7z"/>
<path d="M9764 4440 c-18 -7 -22 -19 -27 -92 -6 -90 2 -111 31 -85 41 38 66
-8 60 -108 -3 -46 -5 -50 -30 -53 -25 -3 -28 0 -28 25 0 38 -17 55 -42 42 -25
-14 -23 -51 6 -78 19 -18 33 -22 77 -19 50 3 55 5 82 45 25 38 27 48 21 90
-10 65 -48 103 -103 103 -35 0 -41 3 -47 25 -8 34 -2 39 58 45 57 6 81 27 59
54 -15 17 -81 21 -117 6z"/>
<path d="M10001 4436 c-47 -26 -62 -79 -36 -130 17 -33 20 -72 4 -81 -21 -14
-30 -57 -19 -91 16 -46 45 -64 105 -64 41 0 56 5 74 24 35 37 39 100 11 151
l-23 42 21 31 c29 40 28 64 -7 101 -23 24 -37 31 -68 31 -21 -1 -49 -7 -62
-14z m88 -30 c7 -8 11 -32 9 -53 -4 -49 -31 -56 -64 -16 -28 34 -29 41 -7 65
19 22 46 23 62 4z m-24 -207 c38 -34 45 -67 19 -93 -55 -55 -122 49 -72 112
14 16 12 17 53 -19z"/>
<path d="M11045 4420 l-60 -5 -8 -88 c-5 -49 -6 -91 -2 -95 3 -3 15 -1 25 6
31 19 59 15 65 -11 3 -12 5 -52 3 -87 -3 -59 -5 -65 -26 -68 -22 -3 -25 1 -36
51 -7 31 -31 36 -46 8 -13 -25 2 -66 29 -80 35 -19 97 -13 126 12 49 42 51
143 4 193 -17 18 -33 24 -66 24 -36 0 -45 4 -52 23 -12 30 11 47 66 47 37 0
45 4 55 25 18 39 -4 51 -77 45z"/>
<path d="M11261 4413 c-109 -54 -83 -293 30 -268 24 6 29 3 29 -12 0 -21 -33
-56 -62 -66 -29 -10 -20 -27 13 -27 44 0 93 33 115 78 23 46 26 190 5 239 -12
30 -65 73 -87 73 -5 0 -24 -8 -43 -17z m67 -126 c2 -73 0 -88 -13 -93 -27 -11
-35 8 -39 87 -4 76 5 102 33 97 13 -3 17 -20 19 -91z"/>
<path d="M1160 3357 c-68 -33 -90 -80 -90 -189 0 -94 7 -121 39 -155 16 -17
33 -23 65 -23 70 0 106 54 106 159 0 77 -23 109 -83 113 -36 3 -42 6 -39 23 4
22 34 51 70 65 25 11 21 30 -6 30 -9 -1 -37 -11 -62 -23z m38 -238 c-3 -91
-10 -111 -31 -90 -15 15 -20 142 -6 177 8 22 12 24 25 13 13 -10 15 -30 12
-100z"/>
<path d="M1362 3329 c-29 -22 -52 -45 -52 -49 0 -5 10 -14 21 -21 21 -11 22
-16 17 -141 l-6 -129 46 3 46 3 -3 180 c-1 99 -6 184 -10 188 -4 4 -31 -11
-59 -34z"/>
<path d="M2312 3324 c-46 -37 -64 -85 -65 -174 0 -115 38 -180 106 -180 65 0
107 59 107 150 0 84 -43 138 -98 124 -28 -8 -35 20 -11 50 11 13 31 26 46 28
47 5 40 28 -9 28 -31 0 -52 -7 -76 -26z m68 -219 c0 -68 -3 -84 -17 -89 -24
-10 -33 11 -33 86 0 47 5 71 16 82 26 27 34 9 34 -79z"/>
<path d="M2523 3328 c-36 -40 -34 -98 2 -98 19 0 29 19 30 55 0 23 5 31 22 33
57 8 49 -104 -13 -194 -102 -146 -100 -154 26 -154 89 0 91 1 101 26 10 27 4
64 -10 64 -5 0 -14 -7 -21 -15 -7 -9 -29 -15 -52 -15 -63 0 -59 22 16 93 62
57 67 66 73 112 5 45 2 54 -22 83 -24 29 -32 32 -79 32 -42 0 -57 -5 -73 -22z"/>
<path d="M3616 3384 c-81 -29 -109 -80 -109 -199 0 -137 47 -200 129 -171 51
17 77 68 77 148 0 76 -23 111 -79 118 -25 3 -40 11 -42 21 -3 18 42 59 64 59
15 0 19 26 7 33 -5 3 -26 -2 -47 -9z m16 -209 c9 -60 -3 -120 -22 -120 -12 0
-16 19 -18 88 -3 80 -1 88 15 85 13 -2 20 -17 25 -53z"/>
<path d="M3806 3386 c-28 -13 -55 -48 -56 -73 0 -6 7 -19 16 -28 22 -21 44 -3
44 36 0 24 4 29 24 29 17 0 26 -7 30 -24 10 -41 -4 -87 -30 -97 -31 -11 -30
-18 2 -44 21 -16 28 -32 31 -71 6 -60 -14 -97 -41 -75 -9 7 -16 24 -16 36 0
28 -22 47 -44 39 -38 -15 4 -102 51 -105 53 -3 80 5 108 32 41 40 42 98 2 135
-15 13 -27 27 -27 30 0 3 11 22 25 42 14 20 25 43 25 50 0 30 -33 74 -65 88
-40 16 -41 16 -79 0z"/>
<path d="M4839 3347 c-19 -12 -44 -42 -56 -67 -42 -81 -24 -253 28 -280 23
-13 85 -13 110 0 37 20 52 68 50 157 -1 57 -40 103 -87 103 -52 0 -46 33 11
68 25 15 45 30 45 34 0 17 -69 7 -101 -15z m49 -202 c4 -75 -5 -125 -22 -125
-16 0 -26 43 -26 110 0 60 8 82 29 78 12 -2 17 -17 19 -63z"/>
<path d="M5112 3307 c-126 -180 -140 -217 -83 -217 61 0 73 -9 69 -54 l-3 -41
50 0 50 0 -3 38 c-2 21 1 44 8 52 9 10 8 21 -4 44 -12 22 -16 59 -16 136 0 77
-3 105 -12 105 -7 0 -33 -28 -56 -63z m-2 -131 c0 -13 -9 -34 -19 -47 -27 -33
-46 -14 -37 35 6 30 11 36 31 36 20 0 25 -5 25 -24z"/>
<path d="M6110 3356 c-48 -15 -57 -22 -91 -68 -27 -39 -29 -47 -29 -137 0
-127 26 -171 101 -171 54 0 67 8 90 53 17 32 20 54 17 109 -3 60 -7 72 -28 89
-14 10 -40 19 -57 19 -53 0 -43 52 13 70 23 8 34 18 34 31 0 21 -1 21 -50 5z
m10 -245 c0 -88 -18 -132 -39 -93 -15 28 -14 165 1 180 24 24 38 -7 38 -87z"/>
<path d="M6275 3347 c-11 -6 -15 -29 -15 -92 0 -85 8 -107 30 -80 32 39 70 -5
70 -80 0 -28 -6 -60 -14 -70 -17 -24 -46 -13 -46 18 0 34 -25 54 -45 37 -34
-28 -2 -89 54 -103 34 -8 94 19 114 52 31 53 17 144 -29 182 -9 8 -36 14 -58
14 -39 0 -41 2 -41 30 0 27 3 30 35 33 75 5 98 21 84 56 -6 16 -113 18 -139 3z"/>
<path d="M7299 3357 c-57 -38 -79 -89 -79 -185 0 -126 33 -182 108 -182 97 0
146 190 66 258 -20 17 -33 22 -55 17 -26 -6 -29 -4 -29 17 0 27 34 64 64 70
11 1 21 9 24 16 7 21 -62 14 -99 -11z m45 -149 c9 -37 7 -134 -4 -164 -24 -61
-50 44 -36 140 8 49 29 62 40 24z"/>
<path d="M7533 3351 c-51 -37 -73 -91 -73 -180 0 -114 41 -181 111 -181 58 0
99 66 99 159 0 75 -29 116 -82 116 -28 0 -33 4 -36 26 -3 23 3 30 42 49 26 12
44 26 40 31 -11 18 -62 8 -101 -20z m52 -223 c0 -47 -4 -90 -8 -95 -18 -17
-37 32 -37 93 0 74 7 96 29 92 13 -3 16 -18 16 -90z"/>
<path d="M8546 3361 c-58 -39 -71 -75 -71 -191 1 -59 6 -114 12 -126 7 -11 28
-29 48 -39 35 -20 36 -20 72 0 21 11 46 35 56 52 36 62 18 189 -28 207 -9 3
-29 6 -45 6 -15 0 -30 6 -33 14 -8 21 20 55 53 63 42 11 42 27 0 31 -22 1 -46
-5 -64 -17z m52 -225 c3 -81 -7 -111 -30 -88 -12 12 -20 121 -11 155 3 10 12
17 21 15 14 -3 18 -18 20 -82z"/>
<path d="M8727 3373 c-9 -8 -9 -68 0 -76 3 -4 11 -3 17 2 17 13 89 22 104 13
10 -7 6 -23 -18 -74 -32 -67 -65 -201 -56 -225 3 -8 21 -13 45 -13 44 0 56 16
41 56 -13 34 3 137 36 231 14 40 22 77 19 83 -7 11 -178 14 -188 3z"/>
<path d="M9783 3360 c-52 -31 -73 -85 -73 -182 1 -108 22 -161 73 -177 77 -26
143 52 135 161 -5 72 -34 108 -85 108 -32 0 -34 2 -31 28 2 20 13 32 41 45 20
10 37 23 37 28 0 16 -64 9 -97 -11z m57 -224 c0 -45 -5 -79 -14 -91 -13 -18
-14 -18 -25 3 -15 28 -14 155 1 170 24 24 38 -7 38 -82z"/>
<path d="M9988 3360 c-32 -25 -42 -73 -24 -114 24 -53 24 -60 -1 -90 -34 -41
-26 -89 21 -133 27 -25 41 -31 69 -28 43 4 70 20 91 56 23 39 20 94 -6 130
l-23 30 23 39 c28 50 28 62 -4 99 -22 27 -32 31 -74 31 -32 0 -55 -6 -72 -20z
m107 -65 c0 -28 -5 -50 -12 -52 -13 -5 -73 51 -73 67 0 5 9 19 20 30 15 15 25
17 42 11 20 -7 23 -15 23 -56z m-26 -167 c37 -38 39 -67 7 -97 l-25 -23 -25
25 c-28 29 -36 93 -14 115 17 17 22 16 57 -20z"/>
<path d="M11019 3318 c-55 -43 -71 -89 -67 -193 5 -125 47 -179 124 -159 58
14 79 51 79 138 -1 92 -19 126 -69 126 -18 0 -39 7 -46 15 -11 13 -8 21 15 45
16 17 37 30 47 30 10 0 18 7 18 15 0 27 -55 17 -101 -17z m55 -150 c20 -75 -6
-199 -34 -158 -11 17 -14 163 -3 173 13 14 31 6 37 -15z"/>
<path d="M11243 3326 c-41 -34 -61 -119 -44 -178 19 -63 45 -88 87 -81 29 5
34 3 34 -14 0 -24 -24 -48 -63 -62 -34 -13 -27 -31 12 -31 46 0 106 51 125
106 32 95 15 216 -37 260 -36 31 -78 31 -114 0z m85 -96 c3 -76 -3 -120 -16
-120 -25 1 -34 22 -36 86 -3 82 7 117 32 112 14 -3 18 -16 20 -78z"/>
<path d="M12504 3381 c-51 -31 -68 -81 -66 -195 2 -110 19 -152 68 -175 22
-10 32 -9 63 6 52 26 72 75 74 182 1 100 -19 154 -68 182 -38 22 -35 22 -71 0z
m56 -182 c0 -138 -1 -150 -17 -147 -16 3 -18 19 -21 138 -3 145 -1 160 23 160
13 0 15 -22 15 -151z"/>
<path d="M12235 3381 c-24 -5 -31 -12 -33 -34 -2 -16 -1 -36 2 -44 6 -14 8
-14 24 1 20 18 112 23 112 6 0 -5 -14 -36 -30 -67 -31 -59 -65 -195 -56 -220
4 -10 19 -13 47 -11 l42 3 2 95 c1 75 7 111 29 173 15 43 25 85 22 93 -6 15
-100 18 -161 5z"/>
<path d="M1076 2259 c-4 -23 -4 -44 -1 -47 3 -3 19 2 34 11 32 19 96 23 106 7
3 -5 -10 -43 -29 -82 -37 -77 -64 -183 -53 -212 5 -13 16 -16 44 -14 l38 3 2
80 c2 77 28 198 53 245 23 42 8 50 -93 50 l-94 0 -7 -41z"/>
<path d="M1375 2270 c-16 -16 -34 -30 -41 -30 -24 0 -26 -22 -4 -45 22 -23 23
-30 18 -150 l-6 -126 46 3 46 3 -3 180 c-1 99 -5 183 -7 187 -9 14 -19 9 -49
-22z"/>
<path d="M2553 2275 c-28 -12 -63 -58 -63 -84 0 -5 7 -17 16 -26 21 -21 44 -3
44 36 0 32 27 53 51 39 19 -12 16 -97 -5 -141 -9 -19 -36 -61 -61 -94 -71 -94
-58 -115 64 -113 77 2 87 8 97 56 7 32 -9 44 -31 23 -16 -14 -82 -20 -94 -8
-18 18 -12 31 30 62 115 85 133 201 39 247 -42 21 -47 21 -87 3z"/>
<path d="M2269 2269 c-5 -3 -12 -22 -15 -41 -7 -42 9 -57 35 -34 19 17 96 22
105 7 3 -5 -8 -37 -26 -71 -17 -35 -37 -91 -45 -124 -24 -101 -24 -101 23
-104 53 -4 67 12 54 59 -11 37 6 139 39 239 25 75 18 82 -81 78 -44 -2 -84 -6
-89 -9z"/>
<path d="M3523 2318 c-6 -7 -13 -25 -17 -41 -8 -35 15 -46 53 -25 15 10 39 14
59 11 25 -4 32 -10 32 -29 0 -12 -4 -26 -10 -29 -26 -16 -90 -230 -73 -246 8
-7 44 -12 75 -10 14 1 16 11 11 74 -5 72 15 179 47 249 23 49 10 58 -83 58
-56 0 -88 -4 -94 -12z"/>
<path d="M3784 2307 c-40 -35 -32 -110 10 -94 11 4 16 19 16 47 0 37 2 41 23
38 19 -3 22 -10 25 -60 2 -33 -1 -58 -7 -58 -12 0 -41 -28 -41 -40 0 -4 11
-11 24 -14 19 -5 25 -15 31 -51 9 -67 -1 -107 -28 -103 -17 2 -23 12 -28 41
-7 46 -15 54 -37 41 -25 -16 -26 -46 -2 -76 37 -47 126 -45 163 4 27 36 26
102 -2 132 -26 28 -26 44 -1 76 28 36 25 73 -9 109 -37 40 -96 43 -137 8z"/>
<path d="M4777 2297 c-12 -12 -17 -27 -13 -40 3 -12 6 -25 6 -29 0 -4 16 0 35
8 63 26 122 12 98 -23 -37 -54 -83 -190 -83 -246 0 -20 6 -25 37 -30 38 -7 68
7 56 26 -3 5 -5 42 -5 81 2 72 21 155 49 214 23 45 10 54 -83 56 -65 2 -81 -1
-97 -17z"/>
<path d="M5126 2277 c-20 -24 -36 -47 -36 -50 0 -3 -21 -36 -46 -72 -56 -82
-58 -119 -6 -122 55 -2 64 -9 61 -47 -4 -43 -2 -46 49 -48 52 -2 57 3 44 40
-8 23 -7 35 5 51 13 20 13 25 -2 48 -14 20 -16 44 -13 124 4 124 -6 137 -56
76z m-16 -141 c0 -7 -5 -27 -11 -45 -9 -24 -16 -31 -33 -29 -16 2 -20 9 -17
28 1 14 7 33 12 43 11 20 49 23 49 3z"/>
<path d="M6013 2292 c-6 -4 -14 -24 -18 -45 -6 -33 -5 -37 13 -37 12 0 23 4
26 9 7 11 66 20 84 14 19 -8 15 -30 -18 -97 -35 -72 -63 -202 -46 -214 6 -5
27 -8 46 -8 l35 1 5 105 c5 96 18 155 52 227 21 43 6 53 -84 53 -46 0 -88 -4
-95 -8z"/>
<path d="M6280 2290 c-11 -7 -16 -33 -18 -100 -4 -90 2 -106 28 -75 16 19 35
19 54 -1 20 -20 22 -122 2 -149 -16 -22 -46 -14 -46 13 0 29 -23 54 -43 46
-21 -8 -22 -52 -2 -81 35 -50 139 -32 170 28 22 42 19 121 -5 152 -21 27 -71
48 -105 44 -16 -2 -20 4 -20 28 0 27 3 30 35 33 71 5 82 11 78 40 -3 25 -6 27
-58 30 -30 1 -62 -2 -70 -8z"/>
<path d="M7550 2311 c-20 -11 -46 -38 -60 -63 -21 -36 -25 -56 -25 -123 0
-126 34 -184 106 -185 30 0 43 7 68 35 32 37 37 60 32 144 -4 63 -27 90 -74
91 -23 0 -40 5 -43 14 -9 23 15 57 52 72 19 8 32 19 29 24 -9 15 -46 11 -85
-9z m39 -154 c7 -9 9 -38 5 -78 -6 -79 -12 -101 -27 -96 -12 4 -23 148 -13
174 7 17 20 17 35 0z"/>
<path d="M7230 2301 c-11 -22 -13 -54 -4 -63 3 -4 21 0 39 8 45 18 84 18 92
-1 3 -9 -8 -46 -25 -83 -37 -80 -55 -148 -50 -188 3 -27 6 -29 43 -29 l40 0 2
80 c1 80 24 186 50 238 25 50 14 57 -86 57 -79 0 -92 -2 -101 -19z"/>
<path d="M8487 2313 c-10 -10 -8 -93 2 -93 5 0 14 7 21 15 20 24 110 18 110
-7 0 -5 -9 -22 -20 -37 -28 -40 -58 -127 -66 -193 l-6 -58 45 0 c50 0 58 10
46 54 -12 40 4 139 36 232 21 62 24 79 13 85 -15 10 -172 12 -181 2z"/>
<path d="M8732 2308 c-13 -13 -16 -60 -6 -71 4 -3 14 -3 23 2 35 18 80 20 95
6 13 -13 12 -20 -9 -58 -32 -59 -54 -133 -57 -192 l-3 -50 45 0 c39 0 45 2 42
20 -13 79 8 215 44 291 27 56 16 64 -79 64 -51 0 -88 -5 -95 -12z"/>
<path d="M10026 2320 c-35 -11 -75 -56 -75 -85 0 -11 8 -39 18 -61 19 -41 19
-42 0 -70 -28 -43 -25 -107 6 -139 25 -24 65 -34 65 -15 0 5 -7 13 -16 18 -21
12 -31 96 -14 117 17 20 20 19 58 -16 37 -34 41 -68 12 -94 -26 -23 -25 -35 1
-35 11 0 34 13 50 29 24 25 29 38 29 79 0 35 -6 56 -20 72 -25 29 -25 37 0 75
28 42 25 59 -17 100 -37 36 -48 39 -97 25z m58 -36 c18 -18 22 -89 5 -100 -12
-7 -56 22 -72 48 -7 11 -5 22 9 41 22 31 36 33 58 11z"/>
<path d="M9726 2304 c-17 -17 -22 -59 -7 -68 5 -3 26 1 46 10 41 17 85 12 85
-9 0 -7 -11 -36 -24 -63 -33 -68 -56 -150 -56 -196 l0 -39 42 3 43 3 2 90 c1
89 29 211 54 241 9 11 9 18 -1 29 -18 22 -162 21 -184 -1z"/>
<path d="M10972 2258 c-7 -7 -12 -25 -12 -41 0 -28 1 -29 33 -22 97 23 116 4
73 -74 -27 -51 -62 -190 -53 -214 6 -16 53 -28 75 -19 11 4 13 16 8 52 -7 54
16 188 45 262 10 27 17 54 14 59 -9 14 -169 11 -183 -3z"/>
<path d="M11234 2243 c-45 -61 -56 -141 -27 -196 22 -43 43 -58 75 -51 56 11
47 -41 -13 -75 -30 -17 -38 -26 -28 -32 19 -12 58 0 102 30 28 19 41 38 52 75
18 59 19 150 4 197 -20 58 -46 79 -99 79 -39 0 -49 -4 -66 -27z m96 -93 c0
-87 -5 -110 -26 -110 -23 0 -33 34 -30 109 2 73 14 95 43 84 9 -4 13 -27 13
-83z"/>
<path d="M12230 2303 c-37 -33 -42 -74 -15 -132 17 -39 17 -40 -4 -67 -50 -64
-8 -164 70 -164 73 0 105 29 124 111 5 19 -1 39 -19 68 -27 41 -32 61 -18 61
4 0 14 16 21 36 16 44 2 78 -41 100 -43 22 -84 17 -118 -13z m102 -20 c20 -18
23 -45 8 -74 -14 -25 -28 -24 -57 3 -52 49 -4 119 49 71z m-18 -212 c33 -34
37 -78 10 -98 -25 -18 -40 -16 -64 9 -33 36 -23 118 15 118 6 0 24 -13 39 -29z"/>
<path d="M12499 2313 c-44 -27 -59 -72 -59 -178 0 -105 8 -135 46 -170 78 -72
155 11 156 165 1 94 -14 141 -53 175 -35 29 -54 31 -90 8z m59 -164 c1 -74 0
-145 -3 -158 -6 -22 -7 -23 -23 -8 -14 14 -16 37 -14 144 3 138 7 166 25 160
8 -2 13 -47 15 -138z"/>
<path d="M1124 1229 c-26 -13 -54 -60 -54 -91 0 -12 9 -36 19 -51 20 -31 18
-59 -5 -78 -8 -7 -14 -30 -14 -58 0 -68 32 -97 103 -94 66 3 97 31 104 98 5
37 2 52 -16 75 -26 36 -27 62 -1 85 66 60 -49 156 -136 114z m80 -25 c20 -19
22 -104 4 -104 -17 1 -53 30 -66 55 -9 16 -6 25 10 43 25 26 32 27 52 6z m-10
-225 c32 -38 33 -72 3 -91 -33 -23 -64 -7 -73 36 -15 83 22 112 70 55z"/>
<path d="M1358 1193 c-24 -20 -45 -39 -48 -41 -3 -2 6 -11 19 -21 23 -18 24
-21 19 -145 -5 -125 -5 -126 18 -132 12 -3 32 -3 44 1 20 6 20 11 18 187 -2
128 -6 182 -15 185 -6 2 -31 -13 -55 -34z"/>
<path d="M2329 1255 c-49 -26 -64 -122 -24 -155 15 -13 11 -33 -17 -69 -24
-31 -23 -66 3 -107 35 -57 130 -58 172 -1 26 34 28 119 3 146 -20 22 -21 57
-1 65 17 6 20 58 5 87 -13 23 -61 49 -92 49 -13 -1 -35 -7 -49 -15z m87 -32
c19 -25 18 -82 -1 -90 -17 -6 -50 19 -67 50 -7 14 -5 24 8 38 21 24 43 24 60
2z m-17 -219 c35 -39 35 -63 0 -99 -19 -19 -19 -19 -45 7 -20 20 -26 35 -26
67 1 73 23 80 71 25z"/>
<path d="M2568 1252 c-34 -21 -52 -66 -37 -93 19 -37 59 -11 59 39 0 31 24 45
42 24 34 -39 4 -144 -71 -242 -67 -89 -56 -103 79 -98 l74 3 10 33 c12 43 -5
63 -33 38 -25 -22 -96 -19 -96 5 0 8 25 36 55 60 67 55 94 114 76 168 -21 65
-103 97 -158 63z"/>
<path d="M3565 1256 c-50 -22 -72 -100 -40 -142 20 -26 19 -51 -5 -81 -26 -33
-25 -67 1 -109 32 -53 116 -59 167 -12 18 17 22 32 22 78 0 34 -6 64 -15 76
-19 25 -19 52 0 70 34 35 10 91 -52 123 -27 14 -41 13 -78 -3z m85 -47 c12
-22 13 -50 1 -68 -13 -20 -49 -4 -67 32 -16 29 -16 32 5 48 25 20 47 16 61
-12z m-28 -196 c36 -35 38 -84 4 -106 -22 -15 -25 -14 -45 7 -15 16 -21 35
-21 67 0 68 16 76 62 32z"/>
<path d="M3799 1255 c-54 -30 -63 -100 -13 -100 14 0 20 9 24 35 4 27 10 35
25 35 17 0 20 -8 23 -56 3 -56 3 -57 -30 -69 -31 -11 -32 -13 -14 -23 56 -34
71 -86 46 -152 -8 -22 -13 -24 -30 -15 -11 6 -20 21 -20 33 0 32 -15 50 -36
45 -22 -4 -30 -39 -14 -68 6 -11 26 -26 45 -34 61 -26 133 11 149 76 8 35 -15
93 -44 108 -21 11 -21 11 9 43 39 39 40 76 4 117 -33 36 -85 46 -124 25z"/>
<path d="M4809 1247 c-29 -20 -34 -29 -37 -69 -2 -31 3 -56 13 -72 16 -24 16
-27 -4 -59 -29 -47 -28 -107 2 -134 29 -28 89 -39 125 -24 59 25 82 122 42
174 -11 14 -20 29 -20 34 0 5 9 26 20 48 27 53 26 59 -17 94 -45 37 -78 39
-124 8z m82 -17 c14 -8 19 -21 19 -55 0 -41 -2 -45 -24 -45 -25 0 -56 36 -56
65 0 17 20 44 33 45 5 0 17 -5 28 -10z m-10 -221 c36 -38 37 -68 4 -99 -24
-23 -25 -23 -45 -5 -36 33 -39 135 -4 135 9 0 29 -14 45 -31z"/>
<path d="M5137 1242 c-10 -10 -17 -22 -17 -26 0 -5 -13 -25 -30 -46 -16 -21
-30 -43 -30 -49 0 -7 -7 -14 -15 -17 -8 -4 -15 -12 -15 -19 0 -7 -7 -18 -15
-25 -20 -17 -19 -66 1 -74 9 -3 28 -6 44 -6 38 0 56 -23 42 -54 -15 -35 -1
-48 49 -44 l44 3 -3 44 c-2 27 1 47 9 51 9 6 8 16 -5 44 -9 20 -16 51 -15 68
2 18 2 63 1 101 -2 72 -14 84 -45 49z m-27 -166 c0 -34 -31 -69 -53 -60 -12 4
-16 13 -11 28 16 51 64 76 64 32z"/>
<path d="M6039 1217 c-48 -32 -59 -84 -29 -133 l23 -36 -22 -28 c-25 -35 -28
-100 -5 -134 37 -58 147 -46 178 19 22 45 20 92 -4 122 -24 31 -25 51 -4 74
37 41 12 110 -46 128 -50 15 -52 15 -91 -12z m101 -74 c0 -36 -3 -43 -20 -43
-24 0 -60 37 -60 63 0 30 29 47 57 34 19 -8 23 -18 23 -54z m-31 -162 c38 -35
40 -69 6 -101 -21 -20 -27 -21 -41 -9 -30 25 -45 74 -33 108 14 39 28 39 68 2z"/>
<path d="M6270 1211 c-14 -27 -13 -171 1 -171 7 0 17 7 24 16 15 22 51 10 59
-19 15 -57 -1 -167 -24 -167 -13 0 -28 24 -35 58 -3 17 -10 32 -15 32 -25 0
-40 -15 -40 -40 0 -55 80 -88 143 -59 36 16 57 60 57 118 0 42 -5 56 -31 86
-26 29 -38 35 -70 35 -27 0 -41 5 -48 18 -15 28 1 42 57 49 56 6 76 21 66 47
-5 12 -20 16 -70 16 -52 0 -65 -3 -74 -19z"/>
<path d="M7274 1259 c-26 -13 -54 -60 -54 -89 0 -13 10 -38 21 -57 l22 -35
-24 -31 c-36 -48 -32 -101 9 -138 18 -16 42 -29 54 -29 l21 0 -21 23 c-32 34
-43 71 -31 107 14 40 41 39 73 -3 29 -38 33 -69 11 -87 -21 -17 -19 -30 4 -30
11 0 32 16 47 35 22 30 26 42 21 81 -2 24 -12 53 -21 63 -20 22 -20 39 -2 60
7 9 16 30 19 48 5 27 1 36 -29 62 -36 33 -79 39 -120 20z m94 -83 c3 -40 1
-46 -17 -46 -45 0 -76 67 -46 101 16 17 21 18 39 5 15 -10 22 -26 24 -60z"/>
<path d="M7565 1258 c-72 -39 -98 -95 -98 -203 0 -106 23 -156 75 -169 71 -18
119 24 131 114 13 97 -23 160 -89 160 -19 0 -34 4 -34 9 0 23 14 42 46 62 19
11 34 25 34 30 0 12 -41 11 -65 -3z m20 -248 c0 -69 -3 -85 -15 -85 -12 0 -16
18 -18 88 -3 81 -1 88 15 85 16 -3 18 -15 18 -88z"/>
<path d="M8540 1253 c-8 -3 -25 -15 -37 -26 -29 -25 -31 -91 -6 -136 17 -29
17 -30 -5 -54 -24 -25 -29 -77 -13 -120 12 -31 70 -59 107 -51 81 16 123 124
74 187 -25 31 -25 38 1 81 20 34 20 37 4 70 -21 43 -79 66 -125 49z m74 -45
c38 -54 1 -105 -48 -67 -30 24 -34 63 -8 78 26 16 39 13 56 -11z m-21 -206
c15 -15 27 -39 27 -52 0 -29 -27 -60 -51 -60 -21 0 -49 48 -49 84 0 62 30 73
73 28z"/>
<path d="M8727 1243 c-9 -8 -9 -68 -1 -76 4 -3 16 0 28 8 28 20 85 19 93 0 3
-9 -8 -46 -25 -83 -16 -37 -36 -98 -43 -135 -14 -76 -9 -87 43 -87 32 0 49 25
38 56 -12 31 7 154 36 234 13 37 24 73 24 79 0 12 -181 16 -193 4z"/>
<path d="M9774 1250 c-40 -16 -65 -59 -58 -99 4 -20 10 -40 15 -45 14 -16 10
-62 -6 -76 -16 -13 -21 -96 -7 -116 16 -24 59 -44 92 -44 43 0 83 32 104 82
14 35 13 40 -10 85 -28 56 -30 76 -9 93 30 25 7 107 -32 115 -57 12 -69 13
-89 5z m67 -30 c14 -8 19 -21 19 -50 0 -37 -2 -40 -26 -40 -44 0 -72 58 -42
88 15 15 24 15 49 2z m-12 -222 c35 -36 39 -63 14 -90 -22 -24 -49 -23 -67 4
-27 38 -17 118 15 118 4 0 21 -14 38 -32z"/>
<path d="M10010 1249 c-39 -14 -60 -57 -53 -107 3 -23 10 -42 14 -42 17 0 9
-51 -13 -80 -19 -26 -20 -33 -9 -69 20 -69 88 -100 154 -70 55 25 76 122 37
172 -25 31 -25 38 1 81 19 33 20 37 4 70 -23 49 -77 67 -135 45z m75 -35 c21
-22 17 -88 -7 -92 -9 -2 -26 7 -37 19 -46 50 -3 120 44 73z m9 -240 c15 -39
-9 -84 -45 -84 -41 0 -69 98 -39 135 10 12 17 11 45 -11 18 -14 36 -32 39 -40z"/>
<path d="M11015 1186 c-17 -7 -37 -21 -45 -30 -19 -24 -18 -78 5 -119 18 -34
18 -35 -2 -63 -32 -45 -35 -68 -17 -107 30 -63 111 -78 164 -29 42 37 49 87
21 145 -25 52 -26 61 -6 77 8 7 15 29 15 49 0 65 -71 105 -135 77z m80 -76 c0
-55 -21 -64 -58 -24 -21 23 -24 31 -14 51 8 19 17 23 41 21 30 -3 31 -5 31
-48z m-16 -176 c24 -30 26 -61 7 -86 -18 -25 -52 -22 -70 4 -16 22 -22 89 -9
101 15 16 53 5 72 -19z"/>
<path d="M11237 1173 c-21 -24 -47 -101 -47 -141 0 -36 32 -108 52 -115 7 -2
28 -2 46 1 24 3 32 1 32 -10 0 -21 -37 -66 -60 -73 -11 -4 -20 -13 -20 -22 0
-12 7 -14 32 -9 47 9 97 53 119 103 36 84 20 225 -29 264 -32 25 -103 26 -125
2z m91 -103 c3 -92 -10 -128 -38 -110 -12 7 -14 27 -12 96 3 97 6 107 30 102
14 -3 18 -18 20 -88z"/>
<path d="M12261 1251 c-54 -15 -85 -125 -61 -213 12 -42 34 -58 78 -58 16 0
31 -3 35 -6 12 -13 -23 -61 -53 -74 -50 -21 -31 -44 24 -29 41 12 85 56 108
109 15 36 18 57 13 110 -14 143 -53 187 -144 161z m57 -124 c2 -73 0 -88 -14
-94 -24 -9 -34 14 -34 79 0 133 43 146 48 15z"/>
<path d="M12480 1230 c-11 -11 -22 -32 -25 -47 -4 -16 -10 -38 -15 -49 -12
-30 -1 -173 16 -206 17 -33 51 -58 80 -58 31 0 81 44 93 83 29 92 15 226 -30
273 -29 31 -90 33 -119 4z m80 -165 c0 -140 -7 -172 -32 -147 -14 14 -12 270
2 288 24 28 30 0 30 -141z"/>
<path d="M13473 53 c-7 -2 -13 -16 -13 -29 0 -17 6 -24 20 -24 16 0 20 7 20
30 0 30 -4 33 -27 23z"/>
</g>
</svg>
